<svg id="my-svg" width="100%" xmlns="http://www.w3.org/2000/svg" xmlns:xlink="http://www.w3.org/1999/xlink" style="max-width: 1848.5px; background-color: transparent;" viewBox="-101 -10 1848.5 2663.5" role="graphics-document document" aria-roledescription="sequence"><g><rect x="1528" y="2577.5" fill="#eaeaea" stroke="#666" width="150" height="65" name="ACS" rx="3" ry="3" class="actor actor-bottom"/><text x="1603" y="2610" dominant-baseline="central" alignment-baseline="central" class="actor actor-box" style="text-anchor: middle; font-size: 16px; font-weight: 400;"><tspan x="1603" dy="-8">ACS</tspan></text><text x="1603" y="2610" dominant-baseline="central" alignment-baseline="central" class="actor actor-box" style="text-anchor: middle; font-size: 16px; font-weight: 400;"><tspan x="1603" dy="8">(Issuing Bank)</tspan></text></g><g><rect x="1208" y="2577.5" fill="#eaeaea" stroke="#666" width="150" height="65" name="DS" rx="3" ry="3" class="actor actor-bottom"/><text x="1283" y="2610" dominant-baseline="central" alignment-baseline="central" class="actor actor-box" style="text-anchor: middle; font-size: 16px; font-weight: 400;"><tspan x="1283" dy="-8">Directory Server</tspan></text><text x="1283" y="2610" dominant-baseline="central" alignment-baseline="central" class="actor actor-box" style="text-anchor: middle; font-size: 16px; font-weight: 400;"><tspan x="1283" dy="8">(Visa/MC)</tspan></text></g><g><rect x="911" y="2577.5" fill="#eaeaea" stroke="#666" width="150" height="65" name="TDS" rx="3" ry="3" class="actor actor-bottom"/><text x="986" y="2610" dominant-baseline="central" alignment-baseline="central" class="actor actor-box" style="text-anchor: middle; font-size: 16px; font-weight: 400;"><tspan x="986" dy="0">3DS Server</tspan></text></g><g><rect x="669" y="2577.5" fill="#eaeaea" stroke="#666" width="150" height="65" name="PG" rx="3" ry="3" class="actor actor-bottom"/><text x="744" y="2610" dominant-baseline="central" alignment-baseline="central" class="actor actor-box" style="text-anchor: middle; font-size: 16px; font-weight: 400;"><tspan x="744" dy="0">Payment Gateway</tspan></text></g><g><rect x="364" y="2577.5" fill="#eaeaea" stroke="#666" width="150" height="65" name="MS" rx="3" ry="3" class="actor actor-bottom"/><text x="439" y="2610" dominant-baseline="central" alignment-baseline="central" class="actor actor-box" style="text-anchor: middle; font-size: 16px; font-weight: 400;"><tspan x="439" dy="0">Merchant Server</tspan></text></g><g><rect x="0" y="2577.5" fill="#eaeaea" stroke="#666" width="150" height="65" name="CB" rx="3" ry="3" class="actor actor-bottom"/><text x="75" y="2610" dominant-baseline="central" alignment-baseline="central" class="actor actor-box" style="text-anchor: middle; font-size: 16px; font-weight: 400;"><tspan x="75" dy="0">Customer Browser</tspan></text></g><g><line id="actor5" x1="1603" y1="65" x2="1603" y2="2577.5" class="actor-line 200" stroke-width="0.5px" stroke="#999" name="ACS" data-et="life-line" data-id="ACS"/><g id="root-5" data-et="participant" data-type="participant" data-id="ACS"><rect x="1528" y="0" fill="#eaeaea" stroke="#666" width="150" height="65" name="ACS" rx="3" ry="3" class="actor actor-top"/><text x="1603" y="32.5" dominant-baseline="central" alignment-baseline="central" class="actor actor-box" style="text-anchor: middle; font-size: 16px; font-weight: 400;"><tspan x="1603" dy="-8">ACS</tspan></text><text x="1603" y="32.5" dominant-baseline="central" alignment-baseline="central" class="actor actor-box" style="text-anchor: middle; font-size: 16px; font-weight: 400;"><tspan x="1603" dy="8">(Issuing Bank)</tspan></text></g></g><g><line id="actor4" x1="1283" y1="65" x2="1283" y2="2577.5" class="actor-line 200" stroke-width="0.5px" stroke="#999" name="DS" data-et="life-line" data-id="DS"/><g id="root-4" data-et="participant" data-type="participant" data-id="DS"><rect x="1208" y="0" fill="#eaeaea" stroke="#666" width="150" height="65" name="DS" rx="3" ry="3" class="actor actor-top"/><text x="1283" y="32.5" dominant-baseline="central" alignment-baseline="central" class="actor actor-box" style="text-anchor: middle; font-size: 16px; font-weight: 400;"><tspan x="1283" dy="-8">Directory Server</tspan></text><text x="1283" y="32.5" dominant-baseline="central" alignment-baseline="central" class="actor actor-box" style="text-anchor: middle; font-size: 16px; font-weight: 400;"><tspan x="1283" dy="8">(Visa/MC)</tspan></text></g></g><g><line id="actor3" x1="986" y1="65" x2="986" y2="2577.5" class="actor-line 200" stroke-width="0.5px" stroke="#999" name="TDS" data-et="life-line" data-id="TDS"/><g id="root-3" data-et="participant" data-type="participant" data-id="TDS"><rect x="911" y="0" fill="#eaeaea" stroke="#666" width="150" height="65" name="TDS" rx="3" ry="3" class="actor actor-top"/><text x="986" y="32.5" dominant-baseline="central" alignment-baseline="central" class="actor actor-box" style="text-anchor: middle; font-size: 16px; font-weight: 400;"><tspan x="986" dy="0">3DS Server</tspan></text></g></g><g><line id="actor2" x1="744" y1="65" x2="744" y2="2577.5" class="actor-line 200" stroke-width="0.5px" stroke="#999" name="PG" data-et="life-line" data-id="PG"/><g id="root-2" data-et="participant" data-type="participant" data-id="PG"><rect x="669" y="0" fill="#eaeaea" stroke="#666" width="150" height="65" name="PG" rx="3" ry="3" class="actor actor-top"/><text x="744" y="32.5" dominant-baseline="central" alignment-baseline="central" class="actor actor-box" style="text-anchor: middle; font-size: 16px; font-weight: 400;"><tspan x="744" dy="0">Payment Gateway</tspan></text></g></g><g><line id="actor1" x1="439" y1="65" x2="439" y2="2577.5" class="actor-line 200" stroke-width="0.5px" stroke="#999" name="MS" data-et="life-line" data-id="MS"/><g id="root-1" data-et="participant" data-type="participant" data-id="MS"><rect x="364" y="0" fill="#eaeaea" stroke="#666" width="150" height="65" name="MS" rx="3" ry="3" class="actor actor-top"/><text x="439" y="32.5" dominant-baseline="central" alignment-baseline="central" class="actor actor-box" style="text-anchor: middle; font-size: 16px; font-weight: 400;"><tspan x="439" dy="0">Merchant Server</tspan></text></g></g><g><line id="actor0" x1="75" y1="65" x2="75" y2="2577.5" class="actor-line 200" stroke-width="0.5px" stroke="#999" name="CB" data-et="life-line" data-id="CB"/><g id="root-0" data-et="participant" data-type="participant" data-id="CB"><rect x="0" y="0" fill="#eaeaea" stroke="#666" width="150" height="65" name="CB" rx="3" ry="3" class="actor actor-top"/><text x="75" y="32.5" dominant-baseline="central" alignment-baseline="central" class="actor actor-box" style="text-anchor: middle; font-size: 16px; font-weight: 400;"><tspan x="75" dy="0">Customer Browser</tspan></text></g></g><style>#my-svg{font-family:"trebuchet ms",verdana,arial,sans-serif;font-size:16px;fill:#fff;}@keyframes edge-animation-frame{from{stroke-dashoffset:0;}}@keyframes dash{to{stroke-dashoffset:0;}}#my-svg .edge-animation-slow{stroke-dasharray:9,5!important;stroke-dashoffset:900;animation:dash 50s linear infinite;stroke-linecap:round;}#my-svg .edge-animation-fast{stroke-dasharray:9,5!important;stroke-dashoffset:900;animation:dash 20s linear infinite;stroke-linecap:round;}#my-svg .error-icon{fill:#7ED321;}#my-svg .error-text{fill:#812cde;stroke:#812cde;}#my-svg .edge-thickness-normal{stroke-width:1px;}#my-svg .edge-thickness-thick{stroke-width:3.5px;}#my-svg .edge-pattern-solid{stroke-dasharray:0;}#my-svg .edge-thickness-invisible{stroke-width:0;fill:none;}#my-svg .edge-pattern-dashed{stroke-dasharray:3;}#my-svg .edge-pattern-dotted{stroke-dasharray:2;}#my-svg .marker{fill:#333;stroke:#333;}#my-svg .marker.cross{stroke:#333;}#my-svg svg{font-family:"trebuchet ms",verdana,arial,sans-serif;font-size:16px;}#my-svg p{margin:0;}#my-svg .actor{stroke:#2C5F8A;fill:#4A90D9;stroke-width:1;}#my-svg rect.actor.outer-path[data-look="neo"]{filter:drop-shadow( 1px 2px 2px rgba(185,185,185,1));}#my-svg rect.note[data-look="neo"]{stroke:hsl(52.6829268293, 60%, 73.9215686275%);fill:#fff5ad;filter:drop-shadow( 1px 2px 2px rgba(185,185,185,1));}#my-svg text.actor&gt;tspan{fill:#fff;stroke:none;}#my-svg .actor-line{stroke:#2C5F8A;}#my-svg .innerArc{stroke-width:1.5;stroke-dasharray:none;}#my-svg .messageLine0{stroke-width:1.5;stroke-dasharray:none;stroke:#fff;}#my-svg .messageLine1{stroke-width:1.5;stroke-dasharray:2,2;stroke:#fff;}#my-svg [id$="-arrowhead"] path{fill:#fff;stroke:#fff;}#my-svg .sequenceNumber{fill:#cccccc;}#my-svg [id$="-sequencenumber"]{fill:#fff;}#my-svg [id$="-crosshead"] path{fill:#fff;stroke:#fff;}#my-svg .messageText{fill:#fff;stroke:none;}#my-svg .labelBox{stroke:#2C5F8A;fill:#4A90D9;filter:none;}#my-svg .labelText,#my-svg .labelText&gt;tspan{fill:#fff;stroke:none;}#my-svg .loopText,#my-svg .loopText&gt;tspan{fill:#fff;stroke:none;}#my-svg .loopLine{stroke-width:2px;stroke-dasharray:2,2;stroke:#2C5F8A;fill:#2C5F8A;}#my-svg .note{stroke:hsl(52.6829268293, 60%, 73.9215686275%);fill:#fff5ad;}#my-svg .noteText,#my-svg .noteText&gt;tspan{fill:#333;stroke:none;font-weight:normal;}#my-svg .activation0{fill:#F5A623;stroke:hsl(37.4285714286, 91.3043478261%, 44.9019607843%);}#my-svg .activation1{fill:#F5A623;stroke:hsl(37.4285714286, 91.3043478261%, 44.9019607843%);}#my-svg .activation2{fill:#F5A623;stroke:hsl(37.4285714286, 91.3043478261%, 44.9019607843%);}#my-svg .actorPopupMenu{position:absolute;}#my-svg .actorPopupMenuPanel{position:absolute;fill:#4A90D9;box-shadow:0px 8px 16px 0px rgba(0,0,0,0.2);filter:drop-shadow(3px 5px 2px rgb(0 0 0 / 0.4));}#my-svg .actor-man circle,#my-svg line{fill:#4A90D9;stroke-width:2px;}#my-svg g rect.rect{filter:drop-shadow( 1px 2px 2px rgba(185,185,185,1));stroke:#2C5F8A;}#my-svg .node .neo-node{stroke:#2C5F8A;}#my-svg [data-look="neo"].node rect,#my-svg [data-look="neo"].cluster rect,#my-svg [data-look="neo"].node polygon{stroke:url(#my-svg-gradient);filter:drop-shadow( 1px 2px 2px rgba(185,185,185,1));}#my-svg [data-look="neo"].node path{stroke:url(#my-svg-gradient);stroke-width:1px;}#my-svg [data-look="neo"].node .outer-path{filter:drop-shadow( 1px 2px 2px rgba(185,185,185,1));}#my-svg [data-look="neo"].node .neo-line path{stroke:#2C5F8A;filter:none;}#my-svg [data-look="neo"].node circle{stroke:url(#my-svg-gradient);filter:drop-shadow( 1px 2px 2px rgba(185,185,185,1));}#my-svg [data-look="neo"].node circle .state-start{fill:#000000;}#my-svg [data-look="neo"].icon-shape .icon{fill:url(#my-svg-gradient);filter:drop-shadow( 1px 2px 2px rgba(185,185,185,1));}#my-svg [data-look="neo"].icon-shape .icon-neo path{stroke:url(#my-svg-gradient);filter:drop-shadow( 1px 2px 2px rgba(185,185,185,1));}#my-svg :root{--mermaid-font-family:"trebuchet ms",verdana,arial,sans-serif;}</style><g/><defs><symbol id="my-svg-computer" width="24" height="24"><path transform="scale(.5)" d="M2 2v13h20v-13h-20zm18 11h-16v-9h16v9zm-10.228 6l.466-1h3.524l.467 1h-4.457zm14.228 3h-24l2-6h2.104l-1.33 4h18.45l-1.297-4h2.073l2 6zm-5-10h-14v-7h14v7z"/></symbol></defs><defs><symbol id="my-svg-database" fill-rule="evenodd" clip-rule="evenodd"><path transform="scale(.5)" d="M12.258.001l.256.004.255.005.253.008.251.01.249.012.247.015.246.016.242.019.241.02.239.023.236.024.233.027.231.028.229.031.225.032.223.034.22.036.217.038.214.04.211.041.208.043.205.045.201.046.198.048.194.05.191.051.187.053.183.054.18.056.175.057.172.059.168.06.163.061.16.063.155.064.15.066.074.033.073.033.071.034.07.034.069.035.068.035.067.035.066.035.064.036.064.036.062.036.06.036.06.037.058.037.058.037.055.038.055.038.053.038.052.038.051.039.05.039.048.039.047.039.045.04.044.04.043.04.041.04.04.041.039.041.037.041.036.041.034.041.033.042.032.042.03.042.029.042.027.042.026.043.024.043.023.043.021.043.02.043.018.044.017.043.015.044.013.044.012.044.011.045.009.044.007.045.006.045.004.045.002.045.001.045v17l-.001.045-.002.045-.004.045-.006.045-.007.045-.009.044-.011.045-.012.044-.013.044-.015.044-.017.043-.018.044-.02.043-.021.043-.023.043-.024.043-.026.043-.027.042-.029.042-.03.042-.032.042-.033.042-.034.041-.036.041-.037.041-.039.041-.04.041-.041.04-.043.04-.044.04-.045.04-.047.039-.048.039-.05.039-.051.039-.052.038-.053.038-.055.038-.055.038-.058.037-.058.037-.06.037-.06.036-.062.036-.064.036-.064.036-.066.035-.067.035-.068.035-.069.035-.07.034-.071.034-.073.033-.074.033-.15.066-.155.064-.16.063-.163.061-.168.06-.172.059-.175.057-.18.056-.183.054-.187.053-.191.051-.194.05-.198.048-.201.046-.205.045-.208.043-.211.041-.214.04-.217.038-.22.036-.223.034-.225.032-.229.031-.231.028-.233.027-.236.024-.239.023-.241.02-.242.019-.246.016-.247.015-.249.012-.251.01-.253.008-.255.005-.256.004-.258.001-.258-.001-.256-.004-.255-.005-.253-.008-.251-.01-.249-.012-.247-.015-.245-.016-.243-.019-.241-.02-.238-.023-.236-.024-.234-.027-.231-.028-.228-.031-.226-.032-.223-.034-.22-.036-.217-.038-.214-.04-.211-.041-.208-.043-.204-.045-.201-.046-.198-.048-.195-.05-.19-.051-.187-.053-.184-.054-.179-.056-.176-.057-.172-.059-.167-.06-.164-.061-.159-.063-.155-.064-.151-.066-.074-.033-.072-.033-.072-.034-.07-.034-.069-.035-.068-.035-.067-.035-.066-.035-.064-.036-.063-.036-.062-.036-.061-.036-.06-.037-.058-.037-.057-.037-.056-.038-.055-.038-.053-.038-.052-.038-.051-.039-.049-.039-.049-.039-.046-.039-.046-.04-.044-.04-.043-.04-.041-.04-.04-.041-.039-.041-.037-.041-.036-.041-.034-.041-.033-.042-.032-.042-.03-.042-.029-.042-.027-.042-.026-.043-.024-.043-.023-.043-.021-.043-.02-.043-.018-.044-.017-.043-.015-.044-.013-.044-.012-.044-.011-.045-.009-.044-.007-.045-.006-.045-.004-.045-.002-.045-.001-.045v-17l.001-.045.002-.045.004-.045.006-.045.007-.045.009-.044.011-.045.012-.044.013-.044.015-.044.017-.043.018-.044.02-.043.021-.043.023-.043.024-.043.026-.043.027-.042.029-.042.03-.042.032-.042.033-.042.034-.041.036-.041.037-.041.039-.041.04-.041.041-.04.043-.04.044-.04.046-.04.046-.039.049-.039.049-.039.051-.039.052-.038.053-.038.055-.038.056-.038.057-.037.058-.037.06-.037.061-.036.062-.036.063-.036.064-.036.066-.035.067-.035.068-.035.069-.035.07-.034.072-.034.072-.033.074-.033.151-.066.155-.064.159-.063.164-.061.167-.06.172-.059.176-.057.179-.056.184-.054.187-.053.19-.051.195-.05.198-.048.201-.046.204-.045.208-.043.211-.041.214-.04.217-.038.22-.036.223-.034.226-.032.228-.031.231-.028.234-.027.236-.024.238-.023.241-.02.243-.019.245-.016.247-.015.249-.012.251-.01.253-.008.255-.005.256-.004.258-.001.258.001zm-9.258 20.499v.01l.001.021.003.021.004.022.005.021.006.022.007.022.009.023.01.022.011.023.012.023.013.023.015.023.016.024.017.023.018.024.019.024.021.024.022.025.023.024.024.025.052.049.056.05.061.051.066.051.07.051.075.051.079.052.084.052.088.052.092.052.097.052.102.051.105.052.11.052.114.051.119.051.123.051.127.05.131.05.135.05.139.048.144.049.147.047.152.047.155.047.16.045.163.045.167.043.171.043.176.041.178.041.183.039.187.039.19.037.194.035.197.035.202.033.204.031.209.03.212.029.216.027.219.025.222.024.226.021.23.02.233.018.236.016.24.015.243.012.246.01.249.008.253.005.256.004.259.001.26-.001.257-.004.254-.005.25-.008.247-.011.244-.012.241-.014.237-.016.233-.018.231-.021.226-.021.224-.024.22-.026.216-.027.212-.028.21-.031.205-.031.202-.034.198-.034.194-.036.191-.037.187-.039.183-.04.179-.04.175-.042.172-.043.168-.044.163-.045.16-.046.155-.046.152-.047.148-.048.143-.049.139-.049.136-.05.131-.05.126-.05.123-.051.118-.052.114-.051.11-.052.106-.052.101-.052.096-.052.092-.052.088-.053.083-.051.079-.052.074-.052.07-.051.065-.051.06-.051.056-.05.051-.05.023-.024.023-.025.021-.024.02-.024.019-.024.018-.024.017-.024.015-.023.014-.024.013-.023.012-.023.01-.023.01-.022.008-.022.006-.022.006-.022.004-.022.004-.021.001-.021.001-.021v-4.127l-.077.055-.08.053-.083.054-.085.053-.087.052-.09.052-.093.051-.095.05-.097.05-.1.049-.102.049-.105.048-.106.047-.109.047-.111.046-.114.045-.115.045-.118.044-.12.043-.122.042-.124.042-.126.041-.128.04-.13.04-.132.038-.134.038-.135.037-.138.037-.139.035-.142.035-.143.034-.144.033-.147.032-.148.031-.15.03-.151.03-.153.029-.154.027-.156.027-.158.026-.159.025-.161.024-.162.023-.163.022-.165.021-.166.02-.167.019-.169.018-.169.017-.171.016-.173.015-.173.014-.175.013-.175.012-.177.011-.178.01-.179.008-.179.008-.181.006-.182.005-.182.004-.184.003-.184.002h-.37l-.184-.002-.184-.003-.182-.004-.182-.005-.181-.006-.179-.008-.179-.008-.178-.01-.176-.011-.176-.012-.175-.013-.173-.014-.172-.015-.171-.016-.17-.017-.169-.018-.167-.019-.166-.02-.165-.021-.163-.022-.162-.023-.161-.024-.159-.025-.157-.026-.156-.027-.155-.027-.153-.029-.151-.03-.15-.03-.148-.031-.146-.032-.145-.033-.143-.034-.141-.035-.14-.035-.137-.037-.136-.037-.134-.038-.132-.038-.13-.04-.128-.04-.126-.041-.124-.042-.122-.042-.12-.044-.117-.043-.116-.045-.113-.045-.112-.046-.109-.047-.106-.047-.105-.048-.102-.049-.1-.049-.097-.05-.095-.05-.093-.052-.09-.051-.087-.052-.085-.053-.083-.054-.08-.054-.077-.054v4.127zm0-5.654v.011l.001.021.003.021.004.021.005.022.006.022.007.022.009.022.01.022.011.023.012.023.013.023.015.024.016.023.017.024.018.024.019.024.021.024.022.024.023.025.024.024.052.05.056.05.061.05.066.051.07.051.075.052.079.051.084.052.088.052.092.052.097.052.102.052.105.052.11.051.114.051.119.052.123.05.127.051.131.05.135.049.139.049.144.048.147.048.152.047.155.046.16.045.163.045.167.044.171.042.176.042.178.04.183.04.187.038.19.037.194.036.197.034.202.033.204.032.209.03.212.028.216.027.219.025.222.024.226.022.23.02.233.018.236.016.24.014.243.012.246.01.249.008.253.006.256.003.259.001.26-.001.257-.003.254-.006.25-.008.247-.01.244-.012.241-.015.237-.016.233-.018.231-.02.226-.022.224-.024.22-.025.216-.027.212-.029.21-.03.205-.032.202-.033.198-.035.194-.036.191-.037.187-.039.183-.039.179-.041.175-.042.172-.043.168-.044.163-.045.16-.045.155-.047.152-.047.148-.048.143-.048.139-.05.136-.049.131-.05.126-.051.123-.051.118-.051.114-.052.11-.052.106-.052.101-.052.096-.052.092-.052.088-.052.083-.052.079-.052.074-.051.07-.052.065-.051.06-.05.056-.051.051-.049.023-.025.023-.024.021-.025.02-.024.019-.024.018-.024.017-.024.015-.023.014-.023.013-.024.012-.022.01-.023.01-.023.008-.022.006-.022.006-.022.004-.021.004-.022.001-.021.001-.021v-4.139l-.077.054-.08.054-.083.054-.085.052-.087.053-.09.051-.093.051-.095.051-.097.05-.1.049-.102.049-.105.048-.106.047-.109.047-.111.046-.114.045-.115.044-.118.044-.12.044-.122.042-.124.042-.126.041-.128.04-.13.039-.132.039-.134.038-.135.037-.138.036-.139.036-.142.035-.143.033-.144.033-.147.033-.148.031-.15.03-.151.03-.153.028-.154.028-.156.027-.158.026-.159.025-.161.024-.162.023-.163.022-.165.021-.166.02-.167.019-.169.018-.169.017-.171.016-.173.015-.173.014-.175.013-.175.012-.177.011-.178.009-.179.009-.179.007-.181.007-.182.005-.182.004-.184.003-.184.002h-.37l-.184-.002-.184-.003-.182-.004-.182-.005-.181-.007-.179-.007-.179-.009-.178-.009-.176-.011-.176-.012-.175-.013-.173-.014-.172-.015-.171-.016-.17-.017-.169-.018-.167-.019-.166-.02-.165-.021-.163-.022-.162-.023-.161-.024-.159-.025-.157-.026-.156-.027-.155-.028-.153-.028-.151-.03-.15-.03-.148-.031-.146-.033-.145-.033-.143-.033-.141-.035-.14-.036-.137-.036-.136-.037-.134-.038-.132-.039-.13-.039-.128-.04-.126-.041-.124-.042-.122-.043-.12-.043-.117-.044-.116-.044-.113-.046-.112-.046-.109-.046-.106-.047-.105-.048-.102-.049-.1-.049-.097-.05-.095-.051-.093-.051-.09-.051-.087-.053-.085-.052-.083-.054-.08-.054-.077-.054v4.139zm0-5.666v.011l.001.02.003.022.004.021.005.022.006.021.007.022.009.023.01.022.011.023.012.023.013.023.015.023.016.024.017.024.018.023.019.024.021.025.022.024.023.024.024.025.052.05.056.05.061.05.066.051.07.051.075.052.079.051.084.052.088.052.092.052.097.052.102.052.105.051.11.052.114.051.119.051.123.051.127.05.131.05.135.05.139.049.144.048.147.048.152.047.155.046.16.045.163.045.167.043.171.043.176.042.178.04.183.04.187.038.19.037.194.036.197.034.202.033.204.032.209.03.212.028.216.027.219.025.222.024.226.021.23.02.233.018.236.017.24.014.243.012.246.01.249.008.253.006.256.003.259.001.26-.001.257-.003.254-.006.25-.008.247-.01.244-.013.241-.014.237-.016.233-.018.231-.02.226-.022.224-.024.22-.025.216-.027.212-.029.21-.03.205-.032.202-.033.198-.035.194-.036.191-.037.187-.039.183-.039.179-.041.175-.042.172-.043.168-.044.163-.045.16-.045.155-.047.152-.047.148-.048.143-.049.139-.049.136-.049.131-.051.126-.05.123-.051.118-.052.114-.051.11-.052.106-.052.101-.052.096-.052.092-.052.088-.052.083-.052.079-.052.074-.052.07-.051.065-.051.06-.051.056-.05.051-.049.023-.025.023-.025.021-.024.02-.024.019-.024.018-.024.017-.024.015-.023.014-.024.013-.023.012-.023.01-.022.01-.023.008-.022.006-.022.006-.022.004-.022.004-.021.001-.021.001-.021v-4.153l-.077.054-.08.054-.083.053-.085.053-.087.053-.09.051-.093.051-.095.051-.097.05-.1.049-.102.048-.105.048-.106.048-.109.046-.111.046-.114.046-.115.044-.118.044-.12.043-.122.043-.124.042-.126.041-.128.04-.13.039-.132.039-.134.038-.135.037-.138.036-.139.036-.142.034-.143.034-.144.033-.147.032-.148.032-.15.03-.151.03-.153.028-.154.028-.156.027-.158.026-.159.024-.161.024-.162.023-.163.023-.165.021-.166.02-.167.019-.169.018-.169.017-.171.016-.173.015-.173.014-.175.013-.175.012-.177.01-.178.01-.179.009-.179.007-.181.006-.182.006-.182.004-.184.003-.184.001-.185.001-.185-.001-.184-.001-.184-.003-.182-.004-.182-.006-.181-.006-.179-.007-.179-.009-.178-.01-.176-.01-.176-.012-.175-.013-.173-.014-.172-.015-.171-.016-.17-.017-.169-.018-.167-.019-.166-.02-.165-.021-.163-.023-.162-.023-.161-.024-.159-.024-.157-.026-.156-.027-.155-.028-.153-.028-.151-.03-.15-.03-.148-.032-.146-.032-.145-.033-.143-.034-.141-.034-.14-.036-.137-.036-.136-.037-.134-.038-.132-.039-.13-.039-.128-.041-.126-.041-.124-.041-.122-.043-.12-.043-.117-.044-.116-.044-.113-.046-.112-.046-.109-.046-.106-.048-.105-.048-.102-.048-.1-.05-.097-.049-.095-.051-.093-.051-.09-.052-.087-.052-.085-.053-.083-.053-.08-.054-.077-.054v4.153zm8.74-8.179l-.257.004-.254.005-.25.008-.247.011-.244.012-.241.014-.237.016-.233.018-.231.021-.226.022-.224.023-.22.026-.216.027-.212.028-.21.031-.205.032-.202.033-.198.034-.194.036-.191.038-.187.038-.183.04-.179.041-.175.042-.172.043-.168.043-.163.045-.16.046-.155.046-.152.048-.148.048-.143.048-.139.049-.136.05-.131.05-.126.051-.123.051-.118.051-.114.052-.11.052-.106.052-.101.052-.096.052-.092.052-.088.052-.083.052-.079.052-.074.051-.07.052-.065.051-.06.05-.056.05-.051.05-.023.025-.023.024-.021.024-.02.025-.019.024-.018.024-.017.023-.015.024-.014.023-.013.023-.012.023-.01.023-.01.022-.008.022-.006.023-.006.021-.004.022-.004.021-.001.021-.001.021.001.021.001.021.004.021.004.022.006.021.006.023.008.022.01.022.01.023.012.023.013.023.014.023.015.024.017.023.018.024.019.024.02.025.021.024.023.024.023.025.051.05.056.05.06.05.065.051.07.052.074.051.079.052.083.052.088.052.092.052.096.052.101.052.106.052.11.052.114.052.118.051.123.051.126.051.131.05.136.05.139.049.143.048.148.048.152.048.155.046.16.046.163.045.168.043.172.043.175.042.179.041.183.04.187.038.191.038.194.036.198.034.202.033.205.032.21.031.212.028.216.027.22.026.224.023.226.022.231.021.233.018.237.016.241.014.244.012.247.011.25.008.254.005.257.004.26.001.26-.001.257-.004.254-.005.25-.008.247-.011.244-.012.241-.014.237-.016.233-.018.231-.021.226-.022.224-.023.22-.026.216-.027.212-.028.21-.031.205-.032.202-.033.198-.034.194-.036.191-.038.187-.038.183-.04.179-.041.175-.042.172-.043.168-.043.163-.045.16-.046.155-.046.152-.048.148-.048.143-.048.139-.049.136-.05.131-.05.126-.051.123-.051.118-.051.114-.052.11-.052.106-.052.101-.052.096-.052.092-.052.088-.052.083-.052.079-.052.074-.051.07-.052.065-.051.06-.05.056-.05.051-.05.023-.025.023-.024.021-.024.02-.025.019-.024.018-.024.017-.023.015-.024.014-.023.013-.023.012-.023.01-.023.01-.022.008-.022.006-.023.006-.021.004-.022.004-.021.001-.021.001-.021-.001-.021-.001-.021-.004-.021-.004-.022-.006-.021-.006-.023-.008-.022-.01-.022-.01-.023-.012-.023-.013-.023-.014-.023-.015-.024-.017-.023-.018-.024-.019-.024-.02-.025-.021-.024-.023-.024-.023-.025-.051-.05-.056-.05-.06-.05-.065-.051-.07-.052-.074-.051-.079-.052-.083-.052-.088-.052-.092-.052-.096-.052-.101-.052-.106-.052-.11-.052-.114-.052-.118-.051-.123-.051-.126-.051-.131-.05-.136-.05-.139-.049-.143-.048-.148-.048-.152-.048-.155-.046-.16-.046-.163-.045-.168-.043-.172-.043-.175-.042-.179-.041-.183-.04-.187-.038-.191-.038-.194-.036-.198-.034-.202-.033-.205-.032-.21-.031-.212-.028-.216-.027-.22-.026-.224-.023-.226-.022-.231-.021-.233-.018-.237-.016-.241-.014-.244-.012-.247-.011-.25-.008-.254-.005-.257-.004-.26-.001-.26.001z"/></symbol></defs><defs><symbol id="my-svg-clock" width="24" height="24"><path transform="scale(.5)" d="M12 2c5.514 0 10 4.486 10 10s-4.486 10-10 10-10-4.486-10-10 4.486-10 10-10zm0-2c-6.627 0-12 5.373-12 12s5.373 12 12 12 12-5.373 12-12-5.373-12-12-12zm5.848 12.459c.202.038.202.333.001.372-1.907.361-6.045 1.111-6.547 1.111-.719 0-1.301-.582-1.301-1.301 0-.512.77-5.447 1.125-7.445.034-.192.312-.181.343.014l.985 6.238 5.394 1.011z"/></symbol></defs><defs><marker id="my-svg-arrowhead" refX="7.9" refY="5" markerUnits="userSpaceOnUse" markerWidth="12" markerHeight="12" orient="auto-start-reverse"><path d="M -1 0 L 10 5 L 0 10 z"/></marker></defs><defs><marker id="my-svg-crosshead" markerWidth="15" markerHeight="8" orient="auto" refX="4" refY="4.5"><path fill="none" stroke="#000000" stroke-width="1pt" d="M 1,2 L 6,7 M 6,2 L 1,7" style="stroke-dasharray: 0, 0;"/></marker></defs><defs><marker id="my-svg-filled-head" refX="15.5" refY="7" markerWidth="20" markerHeight="28" orient="auto"><path d="M 18,7 L9,13 L14,7 L9,1 Z"/></marker></defs><defs><marker id="my-svg-sequencenumber" refX="15" refY="15" markerWidth="60" markerHeight="40" orient="auto"><circle cx="15" cy="15" r="6"/></marker></defs><defs><marker id="my-svg-solidTopArrowHead" refX="7.9" refY="7.25" markerUnits="userSpaceOnUse" markerWidth="12" markerHeight="12" orient="auto-start-reverse"><path d="M 0 0 L 10 8 L 0 8 z"/></marker></defs><defs><marker id="my-svg-solidBottomArrowHead" refX="7.9" refY="0.75" markerUnits="userSpaceOnUse" markerWidth="12" markerHeight="12" orient="auto-start-reverse"><path d="M 0 0 L 10 0 L 0 8 z"/></marker></defs><defs><marker id="my-svg-stickTopArrowHead" refX="7.5" refY="7" markerUnits="userSpaceOnUse" markerWidth="12" markerHeight="12" orient="auto-start-reverse"><path d="M 0 0 L 7 7" stroke="black" stroke-width="1.5" fill="none"/></marker></defs><defs><marker id="my-svg-stickBottomArrowHead" refX="7.5" refY="0" markerUnits="userSpaceOnUse" markerWidth="12" markerHeight="12" orient="auto-start-reverse"><path d="M 0 7 L 7 0" stroke="black" stroke-width="1.5" fill="none"/></marker></defs><g data-et="note" data-id="i0"><rect x="50" y="75" fill="#EDF2AE" stroke="#666" width="1578" height="39" class="note"/><text x="839" y="80" text-anchor="middle" dominant-baseline="middle" alignment-baseline="middle" class="noteText" dy="1em" style="font-size: 16px; font-weight: 400;"><tspan x="839">🔒 3D Secure 2.0 Authentication Flow</tspan></text></g><g data-et="note" data-id="i4"><rect x="961" y="260" fill="#EDF2AE" stroke="#666" width="347" height="37" class="note"/><text x="1135" y="265" text-anchor="middle" dominant-baseline="middle" alignment-baseline="middle" class="noteText" dy="1em" style="font-size: 16px; font-weight: 400;"><tspan x="1135">Version Negotiation</tspan></text></g><g data-et="note" data-id="i7"><rect x="1508.5" y="417" fill="#EDF2AE" stroke="#666" width="189" height="105" class="note"/><text x="1603" y="422" text-anchor="middle" dominant-baseline="middle" alignment-baseline="middle" class="noteText" dy="1em" style="font-size: 16px; font-weight: 400;"><tspan x="1603">Risk-Based Analysis:</tspan></text><text x="1603" y="439" text-anchor="middle" dominant-baseline="middle" alignment-baseline="middle" class="noteText" dy="1em" style="font-size: 16px; font-weight: 400;"><tspan x="1603">• Device fingerprint</tspan></text><text x="1603" y="456" text-anchor="middle" dominant-baseline="middle" alignment-baseline="middle" class="noteText" dy="1em" style="font-size: 16px; font-weight: 400;"><tspan x="1603">• Transaction history</tspan></text><text x="1603" y="473" text-anchor="middle" dominant-baseline="middle" alignment-baseline="middle" class="noteText" dy="1em" style="font-size: 16px; font-weight: 400;"><tspan x="1603">• Amount &amp; merchant risk</tspan></text><text x="1603" y="490" text-anchor="middle" dominant-baseline="middle" alignment-baseline="middle" class="noteText" dy="1em" style="font-size: 16px; font-weight: 400;"><tspan x="1603">• Cardholder behavior</tspan></text></g><g data-et="note" data-id="i20"><rect x="50" y="1102.5" fill="#EDF2AE" stroke="#666" width="1578" height="37" class="note"/><text x="839" y="1108" text-anchor="middle" dominant-baseline="middle" alignment-baseline="middle" class="noteText" dy="1em" style="font-size: 16px; font-weight: 400;"><tspan x="839">Customer Authentication Challenge</tspan></text></g><g data-et="note" data-id="i37"><rect x="-31" y="1917.5" fill="#EDF2AE" stroke="#666" width="212" height="37" class="note"/><text x="75" y="1923" text-anchor="middle" dominant-baseline="middle" alignment-baseline="middle" class="noteText" dy="1em" style="font-size: 16px; font-weight: 400;"><tspan x="75">Customer abandons challenge</tspan></text></g><g data-et="control-structure" data-id="i43"><line x1="-41" y1="1195.5" x2="1614" y2="1195.5" class="loopLine"/><line x1="1614" y1="1195.5" x2="1614" y2="2190.5" class="loopLine"/><line x1="-41" y1="2190.5" x2="1614" y2="2190.5" class="loopLine"/><line x1="-41" y1="1195.5" x2="-41" y2="2190.5" class="loopLine"/><line x1="-41" y1="1540" x2="1614" y2="1540" class="loopLine" style="stroke-dasharray: 3, 3;"/><line x1="-41" y1="1877.5" x2="1614" y2="1877.5" class="loopLine" style="stroke-dasharray: 3, 3;"/><polygon points="-41,1195.5 9,1195.5 9,1208.5 0.5999999999999996,1215.5 -41,1215.5" class="labelBox"/><text x="-16" y="1208" text-anchor="middle" dominant-baseline="middle" alignment-baseline="middle" class="labelText" style="font-size: 16px; font-weight: 400;">alt</text><text x="811.5" y="1213" text-anchor="middle" class="loopText" style="font-size: 16px; font-weight: 400;"><tspan x="811.5">[Challenge Succeeded]</tspan></text><text x="786.5" y="1558" text-anchor="middle" class="loopText" style="font-size: 16px; font-weight: 400;">[Challenge Failed]</text><text x="786.5" y="1895" text-anchor="middle" class="loopText" style="font-size: 16px; font-weight: 400;">[Challenge Timeout]</text></g><g data-et="control-structure" data-id="i50"><line x1="-51" y1="532" x2="1638" y2="532" class="loopLine"/><line x1="1638" y1="532" x2="1638" y2="2493.5" class="loopLine"/><line x1="-51" y1="2493.5" x2="1638" y2="2493.5" class="loopLine"/><line x1="-51" y1="532" x2="-51" y2="2493.5" class="loopLine"/><line x1="-51" y1="830.5" x2="1638" y2="830.5" class="loopLine" style="stroke-dasharray: 3, 3;"/><line x1="-51" y1="2205.5" x2="1638" y2="2205.5" class="loopLine" style="stroke-dasharray: 3, 3;"/><polygon points="-51,532 -1,532 -1,545 -9.4,552 -51,552" class="labelBox"/><text x="-26" y="545" text-anchor="middle" dominant-baseline="middle" alignment-baseline="middle" class="labelText" style="font-size: 16px; font-weight: 400;">alt</text><text x="818.5" y="550" text-anchor="middle" class="loopText" style="font-size: 16px; font-weight: 400;"><tspan x="818.5">[Frictionless Flow (Low Risk)]</tspan></text><text x="793.5" y="848" text-anchor="middle" class="loopText" style="font-size: 16px; font-weight: 400;">[Challenge Flow (Higher Risk)]</text><text x="793.5" y="2223" text-anchor="middle" class="loopText" style="font-size: 16px; font-weight: 400;">[Attempt (Issuer not enrolled)]</text></g><g data-et="note" data-id="i51"><rect x="50" y="2503.5" fill="#EDF2AE" stroke="#666" width="1578" height="54" class="note"/><text x="839" y="2509" text-anchor="middle" dominant-baseline="middle" alignment-baseline="middle" class="noteText" dy="1em" style="font-size: 16px; font-weight: 400;"><tspan x="839">Liability Shift: With successful 3DS,</tspan></text><text x="839" y="2526" text-anchor="middle" dominant-baseline="middle" alignment-baseline="middle" class="noteText" dy="1em" style="font-size: 16px; font-weight: 400;"><tspan x="839">fraud liability shifts from merchant to issuer</tspan></text></g><text x="256" y="129" text-anchor="middle" dominant-baseline="middle" alignment-baseline="middle" class="messageText" dy="1em" style="font-size: 16px; font-weight: 400;">Submit payment (card details tokenized)</text><line x1="76" y1="160" x2="435" y2="160" class="messageLine0" data-et="message" data-id="i1" data-from="CB" data-to="MS" stroke-width="2" stroke="none" marker-end="url(#my-svg-arrowhead)" style="fill: none;"/><text x="590" y="175" text-anchor="middle" dominant-baseline="middle" alignment-baseline="middle" class="messageText" dy="1em" style="font-size: 16px; font-weight: 400;">Create payment intent</text><line x1="440" y1="206" x2="740" y2="206" class="messageLine0" data-et="message" data-id="i2" data-from="MS" data-to="PG" stroke-width="2" stroke="none" marker-end="url(#my-svg-arrowhead)" style="fill: none;"/><text x="864" y="221" text-anchor="middle" dominant-baseline="middle" alignment-baseline="middle" class="messageText" dy="1em" style="font-size: 16px; font-weight: 400;">Initiate 3DS authentication</text><line x1="745" y1="250" x2="982" y2="250" class="messageLine0" data-et="message" data-id="i3" data-from="PG" data-to="TDS" stroke-width="2" stroke="none" marker-end="url(#my-svg-arrowhead)" style="fill: none;"/><text x="1133" y="312" text-anchor="middle" dominant-baseline="middle" alignment-baseline="middle" class="messageText" dy="1em" style="font-size: 16px; font-weight: 400;">AReq (Authentication Request)</text><text x="1133" y="329" text-anchor="middle" dominant-baseline="middle" alignment-baseline="middle" class="messageText" dy="1em" style="font-size: 16px; font-weight: 400;">with device fingerprint data</text><line x1="987" y1="361" x2="1279" y2="361" class="messageLine0" data-et="message" data-id="i5" data-from="TDS" data-to="DS" stroke-width="2" stroke="none" marker-end="url(#my-svg-arrowhead)" style="fill: none;"/><text x="1442" y="376" text-anchor="middle" dominant-baseline="middle" alignment-baseline="middle" class="messageText" dy="1em" style="font-size: 16px; font-weight: 400;">Forward AReq to issuer ACS</text><line x1="1284" y1="407" x2="1599" y2="407" class="messageLine0" data-et="message" data-id="i6" data-from="DS" data-to="ACS" stroke-width="2" stroke="none" marker-end="url(#my-svg-arrowhead)" style="fill: none;"/><text x="1445" y="582" text-anchor="middle" dominant-baseline="middle" alignment-baseline="middle" class="messageText" dy="1em" style="font-size: 16px; font-weight: 400;">ARes - Frictionless authenticated ✅</text><line x1="1602" y1="615" x2="1287" y2="615" class="messageLine0" data-et="message" data-id="i9" data-from="ACS" data-to="DS" stroke-width="2" stroke="none" marker-end="url(#my-svg-arrowhead)" style="fill: none;"/><text x="1136" y="630" text-anchor="middle" dominant-baseline="middle" alignment-baseline="middle" class="messageText" dy="1em" style="font-size: 16px; font-weight: 400;">Forward ARes</text><line x1="1282" y1="659" x2="990" y2="659" class="messageLine0" data-et="message" data-id="i10" data-from="DS" data-to="TDS" stroke-width="2" stroke="none" marker-end="url(#my-svg-arrowhead)" style="fill: none;"/><text x="867" y="674" text-anchor="middle" dominant-baseline="middle" alignment-baseline="middle" class="messageText" dy="1em" style="font-size: 16px; font-weight: 400;">Authentication successful</text><text x="867" y="691" text-anchor="middle" dominant-baseline="middle" alignment-baseline="middle" class="messageText" dy="1em" style="font-size: 16px; font-weight: 400;">ECI = 05 (Visa) / 02 (MC)</text><line x1="985" y1="721.5" x2="748" y2="721.5" class="messageLine0" data-et="message" data-id="i11" data-from="TDS" data-to="PG" stroke-width="2" stroke="none" marker-end="url(#my-svg-arrowhead)" style="fill: none;"/><text x="593" y="737" text-anchor="middle" dominant-baseline="middle" alignment-baseline="middle" class="messageText" dy="1em" style="font-size: 16px; font-weight: 400;">3DS complete - proceed to authorize</text><line x1="743" y1="767.5" x2="443" y2="767.5" class="messageLine0" data-et="message" data-id="i12" data-from="PG" data-to="MS" stroke-width="2" stroke="none" marker-end="url(#my-svg-arrowhead)" style="fill: none;"/><text x="259" y="783" text-anchor="middle" dominant-baseline="middle" alignment-baseline="middle" class="messageText" dy="1em" style="font-size: 16px; font-weight: 400;">✅ Payment processing (no challenge shown)</text><line x1="438" y1="815.5" x2="79" y2="815.5" class="messageLine0" data-et="message" data-id="i13" data-from="MS" data-to="CB" stroke-width="2" stroke="none" marker-end="url(#my-svg-arrowhead)" style="fill: none;"/><text x="1445" y="876" text-anchor="middle" dominant-baseline="middle" alignment-baseline="middle" class="messageText" dy="1em" style="font-size: 16px; font-weight: 400;">ARes - Challenge required ⚠️</text><line x1="1602" y1="908.5" x2="1287" y2="908.5" class="messageLine0" data-et="message" data-id="i15" data-from="ACS" data-to="DS" stroke-width="2" stroke="none" marker-end="url(#my-svg-arrowhead)" style="fill: none;"/><text x="1136" y="924" text-anchor="middle" dominant-baseline="middle" alignment-baseline="middle" class="messageText" dy="1em" style="font-size: 16px; font-weight: 400;">Forward ARes with challenge URL</text><line x1="1282" y1="954.5" x2="990" y2="954.5" class="messageLine0" data-et="message" data-id="i16" data-from="DS" data-to="TDS" stroke-width="2" stroke="none" marker-end="url(#my-svg-arrowhead)" style="fill: none;"/><text x="867" y="970" text-anchor="middle" dominant-baseline="middle" alignment-baseline="middle" class="messageText" dy="1em" style="font-size: 16px; font-weight: 400;">Challenge required</text><line x1="985" y1="1000.5" x2="748" y2="1000.5" class="messageLine0" data-et="message" data-id="i17" data-from="TDS" data-to="PG" stroke-width="2" stroke="none" marker-end="url(#my-svg-arrowhead)" style="fill: none;"/><text x="593" y="1016" text-anchor="middle" dominant-baseline="middle" alignment-baseline="middle" class="messageText" dy="1em" style="font-size: 16px; font-weight: 400;">Return challenge data</text><line x1="743" y1="1046.5" x2="443" y2="1046.5" class="messageLine0" data-et="message" data-id="i18" data-from="PG" data-to="MS" stroke-width="2" stroke="none" marker-end="url(#my-svg-arrowhead)" style="fill: none;"/><text x="259" y="1062" text-anchor="middle" dominant-baseline="middle" alignment-baseline="middle" class="messageText" dy="1em" style="font-size: 16px; font-weight: 400;">Display challenge iframe</text><line x1="438" y1="1092.5" x2="79" y2="1092.5" class="messageLine0" data-et="message" data-id="i19" data-from="MS" data-to="CB" stroke-width="2" stroke="none" marker-end="url(#my-svg-arrowhead)" style="fill: none;"/><text x="838" y="1155" text-anchor="middle" dominant-baseline="middle" alignment-baseline="middle" class="messageText" dy="1em" style="font-size: 16px; font-weight: 400;">Render challenge (OTP / Biometric / Password)</text><line x1="76" y1="1185.5" x2="1599" y2="1185.5" class="messageLine0" data-et="message" data-id="i21" data-from="CB" data-to="ACS" stroke-width="2" stroke="none" marker-end="url(#my-svg-arrowhead)" style="fill: none;"/><text x="841" y="1246" text-anchor="middle" dominant-baseline="middle" alignment-baseline="middle" class="messageText" dy="1em" style="font-size: 16px; font-weight: 400;">Challenge completed ✅</text><line x1="1602" y1="1278.5" x2="79" y2="1278.5" class="messageLine0" data-et="message" data-id="i23" data-from="ACS" data-to="CB" stroke-width="2" stroke="none" marker-end="url(#my-svg-arrowhead)" style="fill: none;"/><text x="1445" y="1294" text-anchor="middle" dominant-baseline="middle" alignment-baseline="middle" class="messageText" dy="1em" style="font-size: 16px; font-weight: 400;">RReq (Result Request) - Authenticated</text><line x1="1602" y1="1324.5" x2="1287" y2="1324.5" class="messageLine0" data-et="message" data-id="i24" data-from="ACS" data-to="DS" stroke-width="2" stroke="none" marker-end="url(#my-svg-arrowhead)" style="fill: none;"/><text x="1136" y="1340" text-anchor="middle" dominant-baseline="middle" alignment-baseline="middle" class="messageText" dy="1em" style="font-size: 16px; font-weight: 400;">Forward authentication result</text><line x1="1282" y1="1368.5" x2="990" y2="1368.5" class="messageLine0" data-et="message" data-id="i25" data-from="DS" data-to="TDS" stroke-width="2" stroke="none" marker-end="url(#my-svg-arrowhead)" style="fill: none;"/><text x="867" y="1384" text-anchor="middle" dominant-baseline="middle" alignment-baseline="middle" class="messageText" dy="1em" style="font-size: 16px; font-weight: 400;">Authentication successful</text><text x="867" y="1401" text-anchor="middle" dominant-baseline="middle" alignment-baseline="middle" class="messageText" dy="1em" style="font-size: 16px; font-weight: 400;">ECI = 05 (Visa) / 02 (MC)</text><line x1="985" y1="1431" x2="748" y2="1431" class="messageLine0" data-et="message" data-id="i26" data-from="TDS" data-to="PG" stroke-width="2" stroke="none" marker-end="url(#my-svg-arrowhead)" style="fill: none;"/><text x="593" y="1446" text-anchor="middle" dominant-baseline="middle" alignment-baseline="middle" class="messageText" dy="1em" style="font-size: 16px; font-weight: 400;">3DS complete - proceed</text><line x1="743" y1="1477" x2="443" y2="1477" class="messageLine0" data-et="message" data-id="i27" data-from="PG" data-to="MS" stroke-width="2" stroke="none" marker-end="url(#my-svg-arrowhead)" style="fill: none;"/><text x="259" y="1492" text-anchor="middle" dominant-baseline="middle" alignment-baseline="middle" class="messageText" dy="1em" style="font-size: 16px; font-weight: 400;">✅ Payment authorized</text><line x1="438" y1="1525" x2="79" y2="1525" class="messageLine0" data-et="message" data-id="i28" data-from="MS" data-to="CB" stroke-width="2" stroke="none" marker-end="url(#my-svg-arrowhead)" style="fill: none;"/><text x="841" y="1585" text-anchor="middle" dominant-baseline="middle" alignment-baseline="middle" class="messageText" dy="1em" style="font-size: 16px; font-weight: 400;">Challenge failed ❌</text><line x1="1602" y1="1618" x2="79" y2="1618" class="messageLine0" data-et="message" data-id="i30" data-from="ACS" data-to="CB" stroke-width="2" stroke="none" marker-end="url(#my-svg-arrowhead)" style="fill: none;"/><text x="1445" y="1633" text-anchor="middle" dominant-baseline="middle" alignment-baseline="middle" class="messageText" dy="1em" style="font-size: 16px; font-weight: 400;">RReq - Not authenticated</text><line x1="1602" y1="1664" x2="1287" y2="1664" class="messageLine0" data-et="message" data-id="i31" data-from="ACS" data-to="DS" stroke-width="2" stroke="none" marker-end="url(#my-svg-arrowhead)" style="fill: none;"/><text x="1136" y="1679" text-anchor="middle" dominant-baseline="middle" alignment-baseline="middle" class="messageText" dy="1em" style="font-size: 16px; font-weight: 400;">Forward failure result</text><line x1="1282" y1="1708" x2="990" y2="1708" class="messageLine0" data-et="message" data-id="i32" data-from="DS" data-to="TDS" stroke-width="2" stroke="none" marker-end="url(#my-svg-arrowhead)" style="fill: none;"/><text x="867" y="1723" text-anchor="middle" dominant-baseline="middle" alignment-baseline="middle" class="messageText" dy="1em" style="font-size: 16px; font-weight: 400;">Authentication failed</text><text x="867" y="1740" text-anchor="middle" dominant-baseline="middle" alignment-baseline="middle" class="messageText" dy="1em" style="font-size: 16px; font-weight: 400;">ECI = 07 (Visa) / 00 (MC)</text><line x1="985" y1="1770.5" x2="748" y2="1770.5" class="messageLine0" data-et="message" data-id="i33" data-from="TDS" data-to="PG" stroke-width="2" stroke="none" marker-end="url(#my-svg-arrowhead)" style="fill: none;"/><text x="593" y="1786" text-anchor="middle" dominant-baseline="middle" alignment-baseline="middle" class="messageText" dy="1em" style="font-size: 16px; font-weight: 400;">3DS failed</text><line x1="743" y1="1814.5" x2="443" y2="1814.5" class="messageLine0" data-et="message" data-id="i34" data-from="PG" data-to="MS" stroke-width="2" stroke="none" marker-end="url(#my-svg-arrowhead)" style="fill: none;"/><text x="259" y="1830" text-anchor="middle" dominant-baseline="middle" alignment-baseline="middle" class="messageText" dy="1em" style="font-size: 16px; font-weight: 400;">❌ Payment declined</text><line x1="438" y1="1862.5" x2="79" y2="1862.5" class="messageLine0" data-et="message" data-id="i35" data-from="MS" data-to="CB" stroke-width="2" stroke="none" marker-end="url(#my-svg-arrowhead)" style="fill: none;"/><text x="1445" y="1970" text-anchor="middle" dominant-baseline="middle" alignment-baseline="middle" class="messageText" dy="1em" style="font-size: 16px; font-weight: 400;">RReq - Timeout</text><line x1="1602" y1="2000.5" x2="1287" y2="2000.5" class="messageLine0" data-et="message" data-id="i38" data-from="ACS" data-to="DS" stroke-width="2" stroke="none" marker-end="url(#my-svg-arrowhead)" style="fill: none;"/><text x="1136" y="2016" text-anchor="middle" dominant-baseline="middle" alignment-baseline="middle" class="messageText" dy="1em" style="font-size: 16px; font-weight: 400;">Forward timeout</text><line x1="1282" y1="2044.5" x2="990" y2="2044.5" class="messageLine0" data-et="message" data-id="i39" data-from="DS" data-to="TDS" stroke-width="2" stroke="none" marker-end="url(#my-svg-arrowhead)" style="fill: none;"/><text x="867" y="2060" text-anchor="middle" dominant-baseline="middle" alignment-baseline="middle" class="messageText" dy="1em" style="font-size: 16px; font-weight: 400;">Authentication timeout</text><line x1="985" y1="2088.5" x2="748" y2="2088.5" class="messageLine0" data-et="message" data-id="i40" data-from="TDS" data-to="PG" stroke-width="2" stroke="none" marker-end="url(#my-svg-arrowhead)" style="fill: none;"/><text x="593" y="2104" text-anchor="middle" dominant-baseline="middle" alignment-baseline="middle" class="messageText" dy="1em" style="font-size: 16px; font-weight: 400;">3DS timed out</text><line x1="743" y1="2132.5" x2="443" y2="2132.5" class="messageLine0" data-et="message" data-id="i41" data-from="PG" data-to="MS" stroke-width="2" stroke="none" marker-end="url(#my-svg-arrowhead)" style="fill: none;"/><text x="259" y="2148" text-anchor="middle" dominant-baseline="middle" alignment-baseline="middle" class="messageText" dy="1em" style="font-size: 16px; font-weight: 400;">⚠️ Payment expired - try again</text><line x1="438" y1="2180.5" x2="79" y2="2180.5" class="messageLine0" data-et="message" data-id="i42" data-from="MS" data-to="CB" stroke-width="2" stroke="none" marker-end="url(#my-svg-arrowhead)" style="fill: none;"/><text x="1445" y="2251" text-anchor="middle" dominant-baseline="middle" alignment-baseline="middle" class="messageText" dy="1em" style="font-size: 16px; font-weight: 400;">ARes - Issuer not participating</text><line x1="1602" y1="2281.5" x2="1287" y2="2281.5" class="messageLine0" data-et="message" data-id="i45" data-from="ACS" data-to="DS" stroke-width="2" stroke="none" marker-end="url(#my-svg-arrowhead)" style="fill: none;"/><text x="1136" y="2297" text-anchor="middle" dominant-baseline="middle" alignment-baseline="middle" class="messageText" dy="1em" style="font-size: 16px; font-weight: 400;">Forward ARes</text><line x1="1282" y1="2325.5" x2="990" y2="2325.5" class="messageLine0" data-et="message" data-id="i46" data-from="DS" data-to="TDS" stroke-width="2" stroke="none" marker-end="url(#my-svg-arrowhead)" style="fill: none;"/><text x="867" y="2341" text-anchor="middle" dominant-baseline="middle" alignment-baseline="middle" class="messageText" dy="1em" style="font-size: 16px; font-weight: 400;">Attempted authentication</text><text x="867" y="2358" text-anchor="middle" dominant-baseline="middle" alignment-baseline="middle" class="messageText" dy="1em" style="font-size: 16px; font-weight: 400;">ECI = 06 (Visa) / 01 (MC)</text><line x1="985" y1="2389.5" x2="748" y2="2389.5" class="messageLine0" data-et="message" data-id="i47" data-from="TDS" data-to="PG" stroke-width="2" stroke="none" marker-end="url(#my-svg-arrowhead)" style="fill: none;"/><text x="593" y="2405" text-anchor="middle" dominant-baseline="middle" alignment-baseline="middle" class="messageText" dy="1em" style="font-size: 16px; font-weight: 400;">Proceed with liability shift to issuer</text><line x1="743" y1="2435.5" x2="443" y2="2435.5" class="messageLine0" data-et="message" data-id="i48" data-from="PG" data-to="MS" stroke-width="2" stroke="none" marker-end="url(#my-svg-arrowhead)" style="fill: none;"/><text x="259" y="2451" text-anchor="middle" dominant-baseline="middle" alignment-baseline="middle" class="messageText" dy="1em" style="font-size: 16px; font-weight: 400;">✅ Payment processing</text><line x1="438" y1="2483.5" x2="79" y2="2483.5" class="messageLine0" data-et="message" data-id="i49" data-from="MS" data-to="CB" stroke-width="2" stroke="none" marker-end="url(#my-svg-arrowhead)" style="fill: none;"/></svg>