<svg id="my-svg" width="100%" xmlns="http://www.w3.org/2000/svg" xmlns:xlink="http://www.w3.org/1999/xlink" class="statediagram" style="max-width: 2755.67px; background-color: transparent;" viewBox="0 0 2755.66796875 2180" role="graphics-document document" aria-roledescription="stateDiagram"><style>#my-svg{font-family:"trebuchet ms",verdana,arial,sans-serif;font-size:16px;fill:#fff;}@keyframes edge-animation-frame{from{stroke-dashoffset:0;}}@keyframes dash{to{stroke-dashoffset:0;}}#my-svg .edge-animation-slow{stroke-dasharray:9,5!important;stroke-dashoffset:900;animation:dash 50s linear infinite;stroke-linecap:round;}#my-svg .edge-animation-fast{stroke-dasharray:9,5!important;stroke-dashoffset:900;animation:dash 20s linear infinite;stroke-linecap:round;}#my-svg .error-icon{fill:#7ED321;}#my-svg .error-text{fill:#812cde;stroke:#812cde;}#my-svg .edge-thickness-normal{stroke-width:1px;}#my-svg .edge-thickness-thick{stroke-width:3.5px;}#my-svg .edge-pattern-solid{stroke-dasharray:0;}#my-svg .edge-thickness-invisible{stroke-width:0;fill:none;}#my-svg .edge-pattern-dashed{stroke-dasharray:3;}#my-svg .edge-pattern-dotted{stroke-dasharray:2;}#my-svg .marker{fill:#333;stroke:#333;}#my-svg .marker.cross{stroke:#333;}#my-svg svg{font-family:"trebuchet ms",verdana,arial,sans-serif;font-size:16px;}#my-svg p{margin:0;}#my-svg defs [id$="-barbEnd"]{fill:#333;stroke:#333;}#my-svg g.stateGroup text{fill:#2C5F8A;stroke:none;font-size:10px;}#my-svg g.stateGroup text{fill:#fff;stroke:none;font-size:10px;}#my-svg g.stateGroup .state-title{font-weight:bolder;fill:#fff;}#my-svg g.stateGroup rect{fill:#4A90D9;stroke:#2C5F8A;}#my-svg g.stateGroup line{stroke:#333;stroke-width:1;}#my-svg .transition{stroke:#333;stroke-width:1;fill:none;}#my-svg .stateGroup .composit{fill:#f4f4f4;border-bottom:1px;}#my-svg .stateGroup .alt-composit{fill:#e0e0e0;border-bottom:1px;}#my-svg .state-note{stroke:hsl(52.6829268293, 60%, 73.9215686275%);fill:#fff5ad;}#my-svg .state-note text{fill:#333;stroke:none;font-size:10px;}#my-svg .stateLabel .box{stroke:none;stroke-width:0;fill:#4A90D9;opacity:0.5;}#my-svg .edgeLabel .label rect{fill:#4A90D9;opacity:0.5;}#my-svg .edgeLabel{background-color:#F5A623;text-align:center;}#my-svg .edgeLabel p{background-color:#F5A623;}#my-svg .edgeLabel rect{opacity:0.5;background-color:#F5A623;fill:#F5A623;}#my-svg .edgeLabel .label text{fill:#fff;}#my-svg .label div .edgeLabel{color:#fff;}#my-svg .stateLabel text{fill:#fff;font-size:10px;font-weight:bold;}#my-svg .node circle.state-start{fill:#333;stroke:#333;}#my-svg .node .fork-join{fill:#333;stroke:#333;}#my-svg .node circle.state-end{fill:#2C5F8A;stroke:#f4f4f4;stroke-width:1.5;}#my-svg .end-state-inner{fill:#f4f4f4;stroke-width:1.5;}#my-svg .node rect{fill:#4A90D9;stroke:#2C5F8A;stroke-width:1px;}#my-svg .node polygon{fill:#4A90D9;stroke:#2C5F8A;stroke-width:1px;}#my-svg [id$="-barbEnd"]{fill:#333;}#my-svg .statediagram-cluster rect{fill:#4A90D9;stroke:#2C5F8A;stroke-width:1px;}#my-svg .cluster-label,#my-svg .nodeLabel{color:#fff;}#my-svg .statediagram-cluster rect.outer{rx:5px;ry:5px;}#my-svg .statediagram-state .divider{stroke:#2C5F8A;}#my-svg .statediagram-state .title-state{rx:5px;ry:5px;}#my-svg .statediagram-cluster.statediagram-cluster .inner{fill:#f4f4f4;}#my-svg .statediagram-cluster.statediagram-cluster-alt .inner{fill:#7ED321;}#my-svg .statediagram-cluster .inner{rx:0;ry:0;}#my-svg .statediagram-state rect.basic{rx:5px;ry:5px;}#my-svg .statediagram-state rect.divider{stroke-dasharray:10,10;fill:#7ED321;}#my-svg .note-edge{stroke-dasharray:5;}#my-svg .statediagram-note rect{fill:#fff5ad;stroke:hsl(52.6829268293, 60%, 73.9215686275%);stroke-width:1px;rx:0;ry:0;}#my-svg .statediagram-note rect{fill:#fff5ad;stroke:hsl(52.6829268293, 60%, 73.9215686275%);stroke-width:1px;rx:0;ry:0;}#my-svg .statediagram-note text{fill:#333;}#my-svg .statediagram-note .nodeLabel{color:#333;}#my-svg .statediagram .edgeLabel{color:red;}#my-svg [id$="-dependencyStart"],#my-svg [id$="-dependencyEnd"]{fill:#333;stroke:#333;stroke-width:1;}#my-svg .statediagramTitleText{text-anchor:middle;font-size:18px;fill:#fff;}#my-svg [data-look="neo"].statediagram-cluster rect{fill:#4A90D9;stroke:url(#my-svg-gradient);stroke-width:1;}#my-svg [data-look="neo"].statediagram-cluster rect.outer{rx:5px;ry:5px;filter:drop-shadow( 1px 2px 2px rgba(185,185,185,1));}#my-svg .node .neo-node{stroke:#2C5F8A;}#my-svg [data-look="neo"].node rect,#my-svg [data-look="neo"].cluster rect,#my-svg [data-look="neo"].node polygon{stroke:url(#my-svg-gradient);filter:drop-shadow( 1px 2px 2px rgba(185,185,185,1));}#my-svg [data-look="neo"].node path{stroke:url(#my-svg-gradient);stroke-width:1px;}#my-svg [data-look="neo"].node .outer-path{filter:drop-shadow( 1px 2px 2px rgba(185,185,185,1));}#my-svg [data-look="neo"].node .neo-line path{stroke:#2C5F8A;filter:none;}#my-svg [data-look="neo"].node circle{stroke:url(#my-svg-gradient);filter:drop-shadow( 1px 2px 2px rgba(185,185,185,1));}#my-svg [data-look="neo"].node circle .state-start{fill:#000000;}#my-svg [data-look="neo"].icon-shape .icon{fill:url(#my-svg-gradient);filter:drop-shadow( 1px 2px 2px rgba(185,185,185,1));}#my-svg [data-look="neo"].icon-shape .icon-neo path{stroke:url(#my-svg-gradient);filter:drop-shadow( 1px 2px 2px rgba(185,185,185,1));}#my-svg :root{--mermaid-font-family:"trebuchet ms",verdana,arial,sans-serif;}</style><g><defs><marker id="my-svg_stateDiagram-barbEnd" refX="19" refY="7" markerWidth="20" markerHeight="14" markerUnits="userSpaceOnUse" orient="auto"><path d="M 19,7 L9,13 L14,7 L9,1 Z"/></marker></defs><g class="root"><g class="clusters"><g class="note-cluster" id="my-svg-state-Created----parent-32"><rect x="591.9341766834259" y="210" width="285" height="128" fill="none"/></g><g class="note-cluster" id="my-svg-state-Authorized----parent-33"><rect x="8" y="768" width="277.015625" height="152" fill="none"/></g><g class="note-cluster" id="my-svg-state-Captured----parent-34"><rect x="195.37890625" y="1018" width="275.1875" height="128" fill="none"/></g><g class="note-cluster" id="my-svg-state-Settled----parent-35"><rect x="361.84765625" y="1220" width="257.4375" height="152" fill="none"/></g><g class="note-cluster" id="my-svg-state-Disputed----parent-36"><rect x="808.765625" y="1608" width="300" height="176" fill="none"/></g><g class="note-cluster" id="my-svg-state-Voided----parent-37"><rect x="2447.66796875" y="1996" width="300" height="176" fill="none"/></g></g><g class="edgePaths"><path d="M1909.415,22L1909.415,28.167C1909.415,34.333,1909.415,46.667,1909.415,59C1909.415,71.333,1909.415,83.667,1909.415,89.833L1909.415,96" id="my-svg-edge0" class="edge-thickness-normal edge-pattern-solid transition" style="fill:none;;;fill:none" data-edge="true" data-et="edge" data-id="edge0" data-points="W3sieCI6MTkwOS40MTQ2NDU0MzM0MjYsInkiOjIyfSx7IngiOjE5MDkuNDE0NjQ1NDMzNDI2LCJ5Ijo1OX0seyJ4IjoxOTA5LjQxNDY0NTQzMzQyNiwieSI6OTZ9XQ==" data-look="classic" marker-end="url(#my-svg_stateDiagram-barbEnd)"/><path d="M1945.876,130.607L1963.512,137.673C1981.148,144.738,2016.419,158.869,2034.055,172.101C2051.691,185.333,2051.691,197.667,2051.691,211.167C2051.691,224.667,2051.691,239.333,2051.691,246.667L2051.691,254" id="my-svg-edge1" class="edge-thickness-normal edge-pattern-solid transition" style="fill:none;;;fill:none" data-edge="true" data-et="edge" data-id="edge1" data-points="W3sieCI6MTk0NS44NzU1ODI5MzM0MjYsInkiOjEzMC42MDcyNTg1OTYzNTg5fSx7IngiOjIwNTEuNjkxNDA2MjUsInkiOjE3M30seyJ4IjoyMDUxLjY5MTQwNjI1LCJ5IjoyMTB9LHsieCI6MjA1MS42OTE0MDYyNSwieSI6MjU0fV0=" data-look="classic" marker-end="url(#my-svg_stateDiagram-barbEnd)"/><path d="M1945.876,122.121L1996.387,130.601C2046.898,139.081,2147.919,156.04,2198.43,170.687C2248.941,185.333,2248.941,197.667,2248.941,214.5C2248.941,231.333,2248.941,252.667,2248.941,274C2248.941,295.333,2248.941,316.667,2248.941,333.5C2248.941,350.333,2248.941,362.667,2248.941,381C2248.941,399.333,2248.941,423.667,2248.941,452C2248.941,480.333,2248.941,512.667,2248.941,542.333C2248.941,572,2248.941,599,2248.941,626C2248.941,653,2248.941,680,2248.941,703.667C2248.941,727.333,2248.941,747.667,2228.191,767.713C2207.44,787.759,2165.939,807.518,2145.189,817.397L2124.438,827.277" id="my-svg-edge2" class="edge-thickness-normal edge-pattern-solid transition" style="fill:none;;;fill:none" data-edge="true" data-et="edge" data-id="edge2" data-points="W3sieCI6MTk0NS44NzU1ODI5MzM0MjYsInkiOjEyMi4xMjEwODg3NTQ1NDA4fSx7IngiOjIyNDguOTQxNDA2MjUsInkiOjE3M30seyJ4IjoyMjQ4Ljk0MTQwNjI1LCJ5IjoyMTB9LHsieCI6MjI0OC45NDE0MDYyNSwieSI6Mjc0fSx7IngiOjIyNDguOTQxNDA2MjUsInkiOjMzOH0seyJ4IjoyMjQ4Ljk0MTQwNjI1LCJ5IjozNzV9LHsieCI6MjI0OC45NDE0MDYyNSwieSI6NDQ4fSx7IngiOjIyNDguOTQxNDA2MjUsInkiOjU0NX0seyJ4IjoyMjQ4Ljk0MTQwNjI1LCJ5Ijo2MjZ9LHsieCI6MjI0OC45NDE0MDYyNSwieSI6NzA3fSx7IngiOjIyNDguOTQxNDA2MjUsInkiOjc2OH0seyJ4IjoyMTI0LjQzODA4MjkzMzQyNiwieSI6ODI3LjI3Njc3NzMwMDMxNzV9XQ==" data-look="classic" marker-end="url(#my-svg_stateDiagram-barbEnd)"/><path d="M1875.126,136L1864.553,142.167C1853.981,148.333,1832.836,160.667,1822.264,173C1811.691,185.333,1811.691,197.667,1811.691,214.5C1811.691,231.333,1811.691,252.667,1811.691,274C1811.691,295.333,1811.691,316.667,1811.691,333.5C1811.691,350.333,1811.691,362.667,1811.691,381C1811.691,399.333,1811.691,423.667,1811.691,452C1811.691,480.333,1811.691,512.667,1811.691,542.333C1811.691,572,1811.691,599,1811.691,626C1811.691,653,1811.691,680,1811.691,703.667C1811.691,727.333,1811.691,747.667,1811.691,770.5C1811.691,793.333,1811.691,818.667,1811.691,844C1811.691,869.333,1811.691,894.667,1811.691,915.5C1811.691,936.333,1811.691,952.667,1811.691,969C1811.691,985.333,1811.691,1001.667,1811.691,1020.5C1811.691,1039.333,1811.691,1060.667,1811.691,1082C1811.691,1103.333,1811.691,1124.667,1811.691,1141.5C1811.691,1158.333,1811.691,1170.667,1811.691,1183C1811.691,1195.333,1811.691,1207.667,1811.691,1226.5C1811.691,1245.333,1811.691,1270.667,1811.691,1296C1811.691,1321.333,1811.691,1346.667,1811.691,1367.5C1811.691,1388.333,1811.691,1404.667,1811.691,1424.333C1811.691,1444,1811.691,1467,1811.691,1490C1811.691,1513,1811.691,1536,1811.691,1555.667C1811.691,1575.333,1811.691,1591.667,1811.691,1614.5C1811.691,1637.333,1811.691,1666.667,1811.691,1696C1811.691,1725.333,1811.691,1754.667,1811.691,1777.5C1811.691,1800.333,1811.691,1816.667,1811.691,1833C1811.691,1849.333,1811.691,1865.667,1811.691,1873.833L1811.691,1882" id="my-svg-edge3" class="edge-thickness-normal edge-pattern-solid transition" style="fill:none;;;fill:none" data-edge="true" data-et="edge" data-id="edge3" data-points="W3sieCI6MTg3NS4xMjU3ODk1Nzk1OTIzLCJ5IjoxMzZ9LHsieCI6MTgxMS42OTE0MDYyNSwieSI6MTczfSx7IngiOjE4MTEuNjkxNDA2MjUsInkiOjIxMH0seyJ4IjoxODExLjY5MTQwNjI1LCJ5IjoyNzR9LHsieCI6MTgxMS42OTE0MDYyNSwieSI6MzM4fSx7IngiOjE4MTEuNjkxNDA2MjUsInkiOjM3NX0seyJ4IjoxODExLjY5MTQwNjI1LCJ5Ijo0NDh9LHsieCI6MTgxMS42OTE0MDYyNSwieSI6NTQ1fSx7IngiOjE4MTEuNjkxNDA2MjUsInkiOjYyNn0seyJ4IjoxODExLjY5MTQwNjI1LCJ5Ijo3MDd9LHsieCI6MTgxMS42OTE0MDYyNSwieSI6NzY4fSx7IngiOjE4MTEuNjkxNDA2MjUsInkiOjg0NH0seyJ4IjoxODExLjY5MTQwNjI1LCJ5Ijo5MjB9LHsieCI6MTgxMS42OTE0MDYyNSwieSI6OTY5fSx7IngiOjE4MTEuNjkxNDA2MjUsInkiOjEwMTh9LHsieCI6MTgxMS42OTE0MDYyNSwieSI6MTA4Mn0seyJ4IjoxODExLjY5MTQwNjI1LCJ5IjoxMTQ2fSx7IngiOjE4MTEuNjkxNDA2MjUsInkiOjExODN9LHsieCI6MTgxMS42OTE0MDYyNSwieSI6MTIyMH0seyJ4IjoxODExLjY5MTQwNjI1LCJ5IjoxMjk2fSx7IngiOjE4MTEuNjkxNDA2MjUsInkiOjEzNzJ9LHsieCI6MTgxMS42OTE0MDYyNSwieSI6MTQyMX0seyJ4IjoxODExLjY5MTQwNjI1LCJ5IjoxNDkwfSx7IngiOjE4MTEuNjkxNDA2MjUsInkiOjE1NTl9LHsieCI6MTgxMS42OTE0MDYyNSwieSI6MTYwOH0seyJ4IjoxODExLjY5MTQwNjI1LCJ5IjoxNjk2fSx7IngiOjE4MTEuNjkxNDA2MjUsInkiOjE3ODR9LHsieCI6MTgxMS42OTE0MDYyNSwieSI6MTgzM30seyJ4IjoxODExLjY5MTQwNjI1LCJ5IjoxODgyfV0=" data-look="classic" marker-end="url(#my-svg_stateDiagram-barbEnd)"/><path d="M2051.691,294L2051.691,301.333C2051.691,308.667,2051.691,323.333,2051.691,336.833C2051.691,350.333,2051.691,362.667,2051.691,377.667C2051.691,392.667,2051.691,410.333,2051.691,419.167L2051.691,428" id="my-svg-edge4" class="edge-thickness-normal edge-pattern-solid transition" style="fill:none;;;fill:none" data-edge="true" data-et="edge" data-id="edge4" data-points="W3sieCI6MjA1MS42OTE0MDYyNSwieSI6Mjk0fSx7IngiOjIwNTEuNjkxNDA2MjUsInkiOjMzOH0seyJ4IjoyMDUxLjY5MTQwNjI1LCJ5IjozNzV9LHsieCI6MjA1MS42OTE0MDYyNSwieSI6NDI4fV0=" data-look="classic" marker-end="url(#my-svg_stateDiagram-barbEnd)"/><path d="M2014.332,279.698L1950.626,289.415C1886.921,299.132,1759.509,318.566,1695.803,334.45C1632.098,350.333,1632.098,362.667,1632.098,381C1632.098,399.333,1632.098,423.667,1632.098,452C1632.098,480.333,1632.098,512.667,1609.43,539C1586.763,565.333,1541.428,585.667,1518.76,595.833L1496.092,606" id="my-svg-edge5" class="edge-thickness-normal edge-pattern-solid transition" style="fill:none;;;fill:none" data-edge="true" data-et="edge" data-id="edge5" data-points="W3sieCI6MjAxNC4zMzIwMzEyNSwieSI6Mjc5LjY5ODM2ODk1ODA2OTZ9LHsieCI6MTYzMi4wOTc2NTYyNSwieSI6MzM4fSx7IngiOjE2MzIuMDk3NjU2MjUsInkiOjM3NX0seyJ4IjoxNjMyLjA5NzY1NjI1LCJ5Ijo0NDh9LHsieCI6MTYzMi4wOTc2NTYyNSwieSI6NTQ1fSx7IngiOjE0OTYuMDkyNDUyODg4MTM1NSwieSI6NjA2fV0=" data-look="classic" marker-end="url(#my-svg_stateDiagram-barbEnd)"/><path d="M2089.051,279.556L2154.548,289.297C2220.044,299.037,2351.038,318.519,2416.535,334.426C2482.031,350.333,2482.031,362.667,2482.031,381C2482.031,399.333,2482.031,423.667,2482.031,452C2482.031,480.333,2482.031,512.667,2475.208,539C2468.385,565.333,2454.738,585.667,2447.914,595.833L2441.091,606" id="my-svg-edge6" class="edge-thickness-normal edge-pattern-solid transition" style="fill:none;;;fill:none" data-edge="true" data-et="edge" data-id="edge6" data-points="W3sieCI6MjA4OS4wNTA3ODEyNSwieSI6Mjc5LjU1NjA3Mzk2MDQ0MTl9LHsieCI6MjQ4Mi4wMzEyNSwieSI6MzM4fSx7IngiOjI0ODIuMDMxMjUsInkiOjM3NX0seyJ4IjoyNDgyLjAzMTI1LCJ5Ijo0NDh9LHsieCI6MjQ4Mi4wMzEyNSwieSI6NTQ1fSx7IngiOjI0NDEuMDkxMDAxMTU3NDA3NCwieSI6NjA2fV0=" data-look="classic" marker-end="url(#my-svg_stateDiagram-barbEnd)"/><path d="M1989.441,456.384L1879.785,471.154C1770.128,485.923,1550.814,515.461,1456.219,540.397C1361.624,565.333,1391.747,585.667,1406.809,595.833L1421.871,606" id="my-svg-edge7" class="edge-thickness-normal edge-pattern-solid transition" style="fill:none;;;fill:none" data-edge="true" data-et="edge" data-id="edge7" data-points="W3sieCI6MTk4OS40NDE0MDYyNSwieSI6NDU2LjM4NDIzNjIzOTIxMzc1fSx7IngiOjEzMzEuNTAwNTgyOTMzNDI2LCJ5Ijo1NDV9LHsieCI6MTQyMS44NzA5NTMzMDM3OTYzLCJ5Ijo2MDZ9XQ==" data-look="classic" marker-end="url(#my-svg_stateDiagram-barbEnd)"/><path d="M2113.941,466.775L2157.169,479.812C2200.396,492.85,2286.85,518.925,2336.901,542.129C2386.951,565.333,2400.598,585.667,2407.422,595.833L2414.245,606" id="my-svg-edge8" class="edge-thickness-normal edge-pattern-solid transition" style="fill:none;;;fill:none" data-edge="true" data-et="edge" data-id="edge8" data-points="W3sieCI6MjExMy45NDE0MDYyNSwieSI6NDY2Ljc3NDg3NzYzMTA4MzU0fSx7IngiOjIzNzMuMzA0Njg3NSwieSI6NTQ1fSx7IngiOjI0MTQuMjQ0OTM2MzQyNTkyNiwieSI6NjA2fV0=" data-look="classic" marker-end="url(#my-svg_stateDiagram-barbEnd)"/><path d="M2051.691,468L2051.691,480.833C2051.691,493.667,2051.691,519.333,2051.691,545.667C2051.691,572,2051.691,599,2051.691,626C2051.691,653,2051.691,680,2051.691,703.667C2051.691,727.333,2051.691,747.667,2056.312,767.167C2060.932,786.667,2070.172,805.333,2074.792,814.667L2079.413,824" id="my-svg-edge9" class="edge-thickness-normal edge-pattern-solid transition" style="fill:none;;;fill:none" data-edge="true" data-et="edge" data-id="edge9" data-points="W3sieCI6MjA1MS42OTE0MDYyNSwieSI6NDY4fSx7IngiOjIwNTEuNjkxNDA2MjUsInkiOjU0NX0seyJ4IjoyMDUxLjY5MTQwNjI1LCJ5Ijo2MjZ9LHsieCI6MjA1MS42OTE0MDYyNSwieSI6NzA3fSx7IngiOjIwNTEuNjkxNDA2MjUsInkiOjc2OH0seyJ4IjoyMDc5LjQxMjY0MTcwMDk0NSwieSI6ODI0fV0=" data-look="classic" marker-end="url(#my-svg_stateDiagram-barbEnd)"/><path d="M1405.251,629.603L1239.67,642.503C1074.09,655.402,742.93,681.201,577.35,704.267C411.77,727.333,411.77,747.667,411.77,767.167C411.77,786.667,411.77,805.333,411.77,814.667L411.77,824" id="my-svg-edge10" class="edge-thickness-normal edge-pattern-solid transition" style="fill:none;;;fill:none" data-edge="true" data-et="edge" data-id="edge10" data-points="W3sieCI6MTQwNS4yNTA1ODI5MzM0MjYsInkiOjYyOS42MDMwOTUyMzY5MjE2fSx7IngiOjQxMS43Njk1MzEyNSwieSI6NzA3fSx7IngiOjQxMS43Njk1MzEyNSwieSI6NzY4fSx7IngiOjQxMS43Njk1MzEyNSwieSI6ODI0fV0=" data-look="classic" marker-end="url(#my-svg_stateDiagram-barbEnd)"/><path d="M1481.278,646L1496.414,656.167C1511.551,666.333,1541.824,686.667,1556.961,707C1572.098,727.333,1572.098,747.667,1572.098,767.167C1572.098,786.667,1572.098,805.333,1572.098,814.667L1572.098,824" id="my-svg-edge11" class="edge-thickness-normal edge-pattern-solid transition" style="fill:none;;;fill:none" data-edge="true" data-et="edge" data-id="edge11" data-points="W3sieCI6MTQ4MS4yNzc2MzgwNzMzMjA4LCJ5Ijo2NDZ9LHsieCI6MTU3Mi4wOTc2NTYyNSwieSI6NzA3fSx7IngiOjE1NzIuMDk3NjU2MjUsInkiOjc2OH0seyJ4IjoxNTcyLjA5NzY1NjI1LCJ5Ijo4MjR9XQ==" data-look="classic" marker-end="url(#my-svg_stateDiagram-barbEnd)"/><path d="M1497.751,630.433L1630.903,643.194C1764.055,655.955,2030.36,681.478,2163.512,704.405C2296.665,727.333,2296.665,747.667,2296.665,770.5C2296.665,793.333,2296.665,818.667,2296.665,844C2296.665,869.333,2296.665,894.667,2296.665,915.5C2296.665,936.333,2296.665,952.667,2296.665,969C2296.665,985.333,2296.665,1001.667,2296.665,1020.5C2296.665,1039.333,2296.665,1060.667,2296.665,1082C2296.665,1103.333,2296.665,1124.667,2296.665,1141.5C2296.665,1158.333,2296.665,1170.667,2296.665,1183C2296.665,1195.333,2296.665,1207.667,2296.665,1226.5C2296.665,1245.333,2296.665,1270.667,2296.665,1296C2296.665,1321.333,2296.665,1346.667,2296.665,1367.5C2296.665,1388.333,2296.665,1404.667,2296.665,1424.333C2296.665,1444,2296.665,1467,2296.665,1490C2296.665,1513,2296.665,1536,2296.665,1555.667C2296.665,1575.333,2296.665,1591.667,2296.665,1614.5C2296.665,1637.333,2296.665,1666.667,2296.665,1696C2296.665,1725.333,2296.665,1754.667,2296.665,1777.5C2296.665,1800.333,2296.665,1816.667,2296.665,1833C2296.665,1849.333,2296.665,1865.667,2296.665,1873.833L2296.665,1882" id="my-svg-edge12" class="edge-thickness-normal edge-pattern-solid transition" style="fill:none;;;fill:none" data-edge="true" data-et="edge" data-id="edge12" data-points="W3sieCI6MTQ5Ny43NTA1ODI5MzM0MjYsInkiOjYzMC40MzI1NzEzMzg3NzQ4fSx7IngiOjIyOTYuNjY0NjQ1NDMzNDI2LCJ5Ijo3MDd9LHsieCI6MjI5Ni42NjQ2NDU0MzM0MjYsInkiOjc2OH0seyJ4IjoyMjk2LjY2NDY0NTQzMzQyNiwieSI6ODQ0fSx7IngiOjIyOTYuNjY0NjQ1NDMzNDI2LCJ5Ijo5MjB9LHsieCI6MjI5Ni42NjQ2NDU0MzM0MjYsInkiOjk2OX0seyJ4IjoyMjk2LjY2NDY0NTQzMzQyNiwieSI6MTAxOH0seyJ4IjoyMjk2LjY2NDY0NTQzMzQyNiwieSI6MTA4Mn0seyJ4IjoyMjk2LjY2NDY0NTQzMzQyNiwieSI6MTE0Nn0seyJ4IjoyMjk2LjY2NDY0NTQzMzQyNiwieSI6MTE4M30seyJ4IjoyMjk2LjY2NDY0NTQzMzQyNiwieSI6MTIyMH0seyJ4IjoyMjk2LjY2NDY0NTQzMzQyNiwieSI6MTI5Nn0seyJ4IjoyMjk2LjY2NDY0NTQzMzQyNiwieSI6MTM3Mn0seyJ4IjoyMjk2LjY2NDY0NTQzMzQyNiwieSI6MTQyMX0seyJ4IjoyMjk2LjY2NDY0NTQzMzQyNiwieSI6MTQ5MH0seyJ4IjoyMjk2LjY2NDY0NTQzMzQyNiwieSI6MTU1OX0seyJ4IjoyMjk2LjY2NDY0NTQzMzQyNiwieSI6MTYwOH0seyJ4IjoyMjk2LjY2NDY0NTQzMzQyNiwieSI6MTY5Nn0seyJ4IjoyMjk2LjY2NDY0NTQzMzQyNiwieSI6MTc4NH0seyJ4IjoyMjk2LjY2NDY0NTQzMzQyNiwieSI6MTgzM30seyJ4IjoyMjk2LjY2NDY0NTQzMzQyNiwieSI6MTg4Mn1d" data-look="classic" marker-end="url(#my-svg_stateDiagram-barbEnd)"/><path d="M1497.751,633.802L1570.074,646.001C1642.398,658.201,1787.044,682.601,1859.368,704.967C1931.691,727.333,1931.691,747.667,1952.108,767.677C1972.524,787.688,2013.356,807.376,2033.772,817.22L2054.188,827.064" id="my-svg-edge13" class="edge-thickness-normal edge-pattern-solid transition" style="fill:none;;;fill:none" data-edge="true" data-et="edge" data-id="edge13" data-points="W3sieCI6MTQ5Ny43NTA1ODI5MzM0MjYsInkiOjYzMy44MDE1ODU5OTA1OTczfSx7IngiOjE5MzEuNjkxNDA2MjUsInkiOjcwN30seyJ4IjoxOTMxLjY5MTQwNjI1LCJ5Ijo3Njh9LHsieCI6MjA1NC4xODgwODI5MzM0MjYsInkiOjgyNy4wNjM4Nzc2NTgzOTEyfV0=" data-look="classic" marker-end="url(#my-svg_stateDiagram-barbEnd)"/><path d="M1552.396,864L1543.202,873.333C1534.007,882.667,1515.619,901.333,1506.425,918.833C1497.23,936.333,1497.23,952.667,1497.23,969C1497.23,985.333,1497.23,1001.667,1457.178,1019.215C1417.125,1036.764,1337.02,1055.528,1296.967,1064.91L1256.915,1074.292" id="my-svg-edge14" class="edge-thickness-normal edge-pattern-solid transition" style="fill:none;;;fill:none" data-edge="true" data-et="edge" data-id="edge14" data-points="W3sieCI6MTU1Mi4zOTU3NjQ4MDI2MzE3LCJ5Ijo4NjR9LHsieCI6MTQ5Ny4yMzA0Njg3NSwieSI6OTIwfSx7IngiOjE0OTcuMjMwNDY4NzUsInkiOjk2OX0seyJ4IjoxNDk3LjIzMDQ2ODc1LCJ5IjoxMDE4fSx7IngiOjEyNTYuOTE0NjQ1NDMzNDI2LCJ5IjoxMDc0LjI5MTk4NDQxMjQwMn1d" data-look="classic" marker-end="url(#my-svg_stateDiagram-barbEnd)"/><path d="M1586.097,864L1592.631,873.333C1599.164,882.667,1612.23,901.333,1618.764,918.833C1625.297,936.333,1625.297,952.667,1625.297,969C1625.297,985.333,1625.297,1001.667,1625.297,1020.5C1625.297,1039.333,1625.297,1060.667,1625.297,1082C1625.297,1103.333,1625.297,1124.667,1625.297,1141.5C1625.297,1158.333,1625.297,1170.667,1625.297,1183C1625.297,1195.333,1625.297,1207.667,1618.471,1223.167C1611.645,1238.667,1597.993,1257.333,1591.168,1266.667L1584.342,1276" id="my-svg-edge15" class="edge-thickness-normal edge-pattern-solid transition" style="fill:none;;;fill:none" data-edge="true" data-et="edge" data-id="edge15" data-points="W3sieCI6MTU4Ni4wOTc0NTA2NTc4OTQ4LCJ5Ijo4NjR9LHsieCI6MTYyNS4yOTY4NzUsInkiOjkyMH0seyJ4IjoxNjI1LjI5Njg3NSwieSI6OTY5fSx7IngiOjE2MjUuMjk2ODc1LCJ5IjoxMDE4fSx7IngiOjE2MjUuMjk2ODc1LCJ5IjoxMDgyfSx7IngiOjE2MjUuMjk2ODc1LCJ5IjoxMTQ2fSx7IngiOjE2MjUuMjk2ODc1LCJ5IjoxMTgzfSx7IngiOjE2MjUuMjk2ODc1LCJ5IjoxMjIwfSx7IngiOjE1ODQuMzQxNjk0MDc4OTQ3MywieSI6MTI3Nn1d" data-look="classic" marker-end="url(#my-svg_stateDiagram-barbEnd)"/><path d="M438.809,864L451.427,873.333C464.046,882.667,489.283,901.333,501.901,918.833C514.52,936.333,514.52,952.667,514.52,969C514.52,985.333,514.52,1001.667,627.283,1020.005C740.047,1038.344,965.575,1058.688,1078.338,1068.86L1191.102,1079.032" id="my-svg-edge16" class="edge-thickness-normal edge-pattern-solid transition" style="fill:none;;;fill:none" data-edge="true" data-et="edge" data-id="edge16" data-points="W3sieCI6NDM4LjgwOTAwNDkzNDIxMDUsInkiOjg2NH0seyJ4Ijo1MTQuNTE5NTMxMjUsInkiOjkyMH0seyJ4Ijo1MTQuNTE5NTMxMjUsInkiOjk2OX0seyJ4Ijo1MTQuNTE5NTMxMjUsInkiOjEwMTh9LHsieCI6MTE5MS4xMDIxNDU0MzM0MjYsInkiOjEwNzkuMDMxNjY1ODg0NjczNH1d" data-look="classic" marker-end="url(#my-svg_stateDiagram-barbEnd)"/><path d="M1256.915,1086.469L1329.978,1096.391C1403.042,1106.312,1549.169,1126.156,1622.233,1142.245C1695.297,1158.333,1695.297,1170.667,1695.297,1183C1695.297,1195.333,1695.297,1207.667,1695.297,1226.5C1695.297,1245.333,1695.297,1270.667,1695.297,1296C1695.297,1321.333,1695.297,1346.667,1695.297,1367.5C1695.297,1388.333,1695.297,1404.667,1695.297,1424.333C1695.297,1444,1695.297,1467,1695.297,1490C1695.297,1513,1695.297,1536,1695.297,1555.667C1695.297,1575.333,1695.297,1591.667,1695.297,1614.5C1695.297,1637.333,1695.297,1666.667,1695.297,1696C1695.297,1725.333,1695.297,1754.667,1695.297,1777.5C1695.297,1800.333,1695.297,1816.667,1671.78,1833.662C1648.263,1850.657,1601.23,1868.314,1577.713,1877.143L1554.196,1885.972" id="my-svg-edge17" class="edge-thickness-normal edge-pattern-solid transition" style="fill:none;;;fill:none" data-edge="true" data-et="edge" data-id="edge17" data-points="W3sieCI6MTI1Ni45MTQ2NDU0MzM0MjYsInkiOjEwODYuNDY4NjAwNjM2OTk2fSx7IngiOjE2OTUuMjk2ODc1LCJ5IjoxMTQ2fSx7IngiOjE2OTUuMjk2ODc1LCJ5IjoxMTgzfSx7IngiOjE2OTUuMjk2ODc1LCJ5IjoxMjIwfSx7IngiOjE2OTUuMjk2ODc1LCJ5IjoxMjk2fSx7IngiOjE2OTUuMjk2ODc1LCJ5IjoxMzcyfSx7IngiOjE2OTUuMjk2ODc1LCJ5IjoxNDIxfSx7IngiOjE2OTUuMjk2ODc1LCJ5IjoxNDkwfSx7IngiOjE2OTUuMjk2ODc1LCJ5IjoxNTU5fSx7IngiOjE2OTUuMjk2ODc1LCJ5IjoxNjA4fSx7IngiOjE2OTUuMjk2ODc1LCJ5IjoxNjk2fSx7IngiOjE2OTUuMjk2ODc1LCJ5IjoxNzg0fSx7IngiOjE2OTUuMjk2ODc1LCJ5IjoxODMzfSx7IngiOjE1NTQuMTk1ODk1NDMzNDI2LCJ5IjoxODg1Ljk3MTUxMjU0MDQ1NDh9XQ==" data-look="classic" marker-end="url(#my-svg_stateDiagram-barbEnd)"/><path d="M1256.915,1089.776L1296.57,1099.147C1336.226,1108.517,1415.537,1127.259,1455.192,1142.796C1494.848,1158.333,1494.848,1170.667,1494.848,1183C1494.848,1195.333,1494.848,1207.667,1504.042,1223.167C1513.236,1238.667,1531.625,1257.333,1540.819,1266.667L1550.013,1276" id="my-svg-edge18" class="edge-thickness-normal edge-pattern-solid transition" style="fill:none;;;fill:none" data-edge="true" data-et="edge" data-id="edge18" data-points="W3sieCI6MTI1Ni45MTQ2NDU0MzM0MjYsInkiOjEwODkuNzc1ODI5ODE3NDczNn0seyJ4IjoxNDk0Ljg0NzY1NjI1LCJ5IjoxMTQ2fSx7IngiOjE0OTQuODQ3NjU2MjUsInkiOjExODN9LHsieCI6MTQ5NC44NDc2NTYyNSwieSI6MTIyMH0seyJ4IjoxNTUwLjAxMjk1MjMwMjYzMTcsInkiOjEyNzZ9XQ==" data-look="classic" marker-end="url(#my-svg_stateDiagram-barbEnd)"/><path d="M1256.915,1100.773L1270.127,1108.311C1283.34,1115.849,1309.766,1130.924,1322.979,1144.629C1336.191,1158.333,1336.191,1170.667,1336.191,1183C1336.191,1195.333,1336.191,1207.667,1336.191,1226.5C1336.191,1245.333,1336.191,1270.667,1336.191,1296C1336.191,1321.333,1336.191,1346.667,1336.191,1367.5C1336.191,1388.333,1336.191,1404.667,1297.516,1422.658C1258.841,1440.649,1181.491,1460.297,1142.816,1470.122L1104.141,1479.946" id="my-svg-edge19" class="edge-thickness-normal edge-pattern-solid transition" style="fill:none;;;fill:none" data-edge="true" data-et="edge" data-id="edge19" data-points="W3sieCI6MTI1Ni45MTQ2NDU0MzM0MjYsInkiOjExMDAuNzcyODk2MDQ0MzM0Nn0seyJ4IjoxMzM2LjE5MTQwNjI1LCJ5IjoxMTQ2fSx7IngiOjEzMzYuMTkxNDA2MjUsInkiOjExODN9LHsieCI6MTMzNi4xOTE0MDYyNSwieSI6MTIyMH0seyJ4IjoxMzM2LjE5MTQwNjI1LCJ5IjoxMjk2fSx7IngiOjEzMzYuMTkxNDA2MjUsInkiOjEzNzJ9LHsieCI6MTMzNi4xOTE0MDYyNSwieSI6MTQyMX0seyJ4IjoxMTA0LjE0MTIwNzkzMzQyNiwieSI6MTQ3OS45NDYyMjI4NjkzMzl9XQ==" data-look="classic" marker-end="url(#my-svg_stateDiagram-barbEnd)"/><path d="M1569.715,1316L1569.715,1325.333C1569.715,1334.667,1569.715,1353.333,1569.715,1370.833C1569.715,1388.333,1569.715,1404.667,1569.715,1424.333C1569.715,1444,1569.715,1467,1569.715,1490C1569.715,1513,1569.715,1536,1569.715,1555.667C1569.715,1575.333,1569.715,1591.667,1569.715,1614.5C1569.715,1637.333,1569.715,1666.667,1569.715,1696C1569.715,1725.333,1569.715,1754.667,1569.715,1777.5C1569.715,1800.333,1569.715,1816.667,1562.825,1833C1555.935,1849.333,1542.154,1865.667,1535.264,1873.833L1528.374,1882" id="my-svg-edge20" class="edge-thickness-normal edge-pattern-solid transition" style="fill:none;;;fill:none" data-edge="true" data-et="edge" data-id="edge20" data-points="W3sieCI6MTU2OS43MTQ4NDM3NSwieSI6MTMxNn0seyJ4IjoxNTY5LjcxNDg0Mzc1LCJ5IjoxMzcyfSx7IngiOjE1NjkuNzE0ODQzNzUsInkiOjE0MjF9LHsieCI6MTU2OS43MTQ4NDM3NSwieSI6MTQ5MH0seyJ4IjoxNTY5LjcxNDg0Mzc1LCJ5IjoxNTU5fSx7IngiOjE1NjkuNzE0ODQzNzUsInkiOjE2MDh9LHsieCI6MTU2OS43MTQ4NDM3NSwieSI6MTY5Nn0seyJ4IjoxNTY5LjcxNDg0Mzc1LCJ5IjoxNzg0fSx7IngiOjE1NjkuNzE0ODQzNzUsInkiOjE4MzN9LHsieCI6MTUyOC4zNzQyODE3MjA4Mzg4LCJ5IjoxODgyfV0=" data-look="classic" marker-end="url(#my-svg_stateDiagram-barbEnd)"/><path d="M1498.566,1303.877L1396.012,1315.231C1293.457,1326.585,1088.348,1349.292,985.793,1368.813C883.238,1388.333,883.238,1404.667,906.863,1421.823C930.487,1438.98,977.736,1456.959,1001.361,1465.949L1024.985,1474.939" id="my-svg-edge21" class="edge-thickness-normal edge-pattern-solid transition" style="fill:none;;;fill:none" data-edge="true" data-et="edge" data-id="edge21" data-points="W3sieCI6MTQ5OC41NjY0MDYyNSwieSI6MTMwMy44NzY4NjIxNDcwNn0seyJ4Ijo4ODMuMjM4MjgxMjUsInkiOjEzNzJ9LHsieCI6ODgzLjIzODI4MTI1LCJ5IjoxNDIxfSx7IngiOjEwMjQuOTg0OTU3OTMzNDI2LCJ5IjoxNDc0LjkzOTIzMjgwNDA4MjR9XQ==" data-look="classic" marker-end="url(#my-svg_stateDiagram-barbEnd)"/><path d="M1024.985,1498.837L980.079,1508.865C935.174,1518.892,845.362,1538.946,800.456,1557.14C755.551,1575.333,755.551,1591.667,748.064,1611.167C740.577,1630.667,725.604,1653.333,718.117,1664.667L710.63,1676" id="my-svg-edge22" class="edge-thickness-normal edge-pattern-solid transition" style="fill:none;;;fill:none" data-edge="true" data-et="edge" data-id="edge22" data-points="W3sieCI6MTAyNC45ODQ5NTc5MzM0MjYsInkiOjE0OTguODM3NDgxOTA2NDU3Mn0seyJ4Ijo3NTUuNTUwNzgxMjUsInkiOjE1NTl9LHsieCI6NzU1LjU1MDc4MTI1LCJ5IjoxNjA4fSx7IngiOjcxMC42Mjk5NzE1OTA5MDkxLCJ5IjoxNjc2fV0=" data-look="classic" marker-end="url(#my-svg_stateDiagram-barbEnd)"/><path d="M1102.086,1510L1117.407,1518.167C1132.729,1526.333,1163.372,1542.667,1178.694,1559C1194.016,1575.333,1194.016,1591.667,1194.016,1611.167C1194.016,1630.667,1194.016,1653.333,1194.016,1664.667L1194.016,1676" id="my-svg-edge23" class="edge-thickness-normal edge-pattern-solid transition" style="fill:none;;;fill:none" data-edge="true" data-et="edge" data-id="edge23" data-points="W3sieCI6MTEwMi4wODU1NTg4OTQ3NTE4LCJ5IjoxNTEwfSx7IngiOjExOTQuMDE1NjI1LCJ5IjoxNTU5fSx7IngiOjExOTQuMDE1NjI1LCJ5IjoxNjA4fSx7IngiOjExOTQuMDE1NjI1LCJ5IjoxNjc2fV0=" data-look="classic" marker-end="url(#my-svg_stateDiagram-barbEnd)"/><path d="M1104.141,1498.678L1149.995,1508.731C1195.849,1518.785,1287.557,1538.893,1333.412,1557.113C1379.266,1575.333,1379.266,1591.667,1379.266,1614.5C1379.266,1637.333,1379.266,1666.667,1379.266,1696C1379.266,1725.333,1379.266,1754.667,1379.266,1777.5C1379.266,1800.333,1379.266,1816.667,1394.917,1833C1410.568,1849.333,1441.87,1865.667,1457.521,1873.833L1473.172,1882" id="my-svg-edge24" class="edge-thickness-normal edge-pattern-solid transition" style="fill:none;;;fill:none" data-edge="true" data-et="edge" data-id="edge24" data-points="W3sieCI6MTEwNC4xNDEyMDc5MzM0MjYsInkiOjE0OTguNjc3Njg4NDgzNDM4N30seyJ4IjoxMzc5LjI2NTYyNSwieSI6MTU1OX0seyJ4IjoxMzc5LjI2NTYyNSwieSI6MTYwOH0seyJ4IjoxMzc5LjI2NTYyNSwieSI6MTY5Nn0seyJ4IjoxMzc5LjI2NTYyNSwieSI6MTc4NH0seyJ4IjoxMzc5LjI2NTYyNSwieSI6MTgzM30seyJ4IjoxNDczLjE3MTYwOTYxOTM4OTMsInkiOjE4ODJ9XQ==" data-look="classic" marker-end="url(#my-svg_stateDiagram-barbEnd)"/><path d="M684.206,1676L676.719,1664.667C669.232,1653.333,654.259,1630.667,646.772,1611.167C639.285,1591.667,639.285,1575.333,639.285,1555.667C639.285,1536,639.285,1513,639.285,1490C639.285,1467,639.285,1444,639.285,1424.333C639.285,1404.667,639.285,1388.333,639.285,1367.5C639.285,1346.667,639.285,1321.333,639.285,1296C639.285,1270.667,639.285,1245.333,639.285,1226.5C639.285,1207.667,639.285,1195.333,639.285,1183C639.285,1170.667,639.285,1158.333,731.255,1142.1C823.224,1125.867,1007.163,1105.734,1099.133,1095.668L1191.102,1085.602" id="my-svg-edge25" class="edge-thickness-normal edge-pattern-solid transition" style="fill:none;;;fill:none" data-edge="true" data-et="edge" data-id="edge25" data-points="W3sieCI6Njg0LjIwNTk2NTkwOTA5MDksInkiOjE2NzZ9LHsieCI6NjM5LjI4NTE1NjI1LCJ5IjoxNjA4fSx7IngiOjYzOS4yODUxNTYyNSwieSI6MTU1OX0seyJ4Ijo2MzkuMjg1MTU2MjUsInkiOjE0OTB9LHsieCI6NjM5LjI4NTE1NjI1LCJ5IjoxNDIxfSx7IngiOjYzOS4yODUxNTYyNSwieSI6MTM3Mn0seyJ4Ijo2MzkuMjg1MTU2MjUsInkiOjEyOTZ9LHsieCI6NjM5LjI4NTE1NjI1LCJ5IjoxMjIwfSx7IngiOjYzOS4yODUxNTYyNSwieSI6MTE4M30seyJ4Ijo2MzkuMjg1MTU2MjUsInkiOjExNDZ9LHsieCI6MTE5MS4xMDIxNDU0MzM0MjYsInkiOjEwODUuNjAxNzAzOTQ5NjE3M31d" data-look="classic" marker-end="url(#my-svg_stateDiagram-barbEnd)"/><path d="M1194.016,1716L1194.016,1727.333C1194.016,1738.667,1194.016,1761.333,1194.016,1780.833C1194.016,1800.333,1194.016,1816.667,1239.814,1834.787C1285.612,1852.907,1377.209,1872.814,1423.007,1882.767L1468.805,1892.721" id="my-svg-edge26" class="edge-thickness-normal edge-pattern-solid transition" style="fill:none;;;fill:none" data-edge="true" data-et="edge" data-id="edge26" data-points="W3sieCI6MTE5NC4wMTU2MjUsInkiOjE3MTZ9LHsieCI6MTE5NC4wMTU2MjUsInkiOjE3ODR9LHsieCI6MTE5NC4wMTU2MjUsInkiOjE4MzN9LHsieCI6MTQ2OC44MDUyNzA0MzM0MjYsInkiOjE4OTIuNzIwODk0MDQ5MDQxMX1d" data-look="classic" marker-end="url(#my-svg_stateDiagram-barbEnd)"/><path d="M2427.668,646L2427.668,656.167C2427.668,666.333,2427.668,686.667,2427.668,707C2427.668,727.333,2427.668,747.667,2427.668,770.5C2427.668,793.333,2427.668,818.667,2427.668,844C2427.668,869.333,2427.668,894.667,2427.668,915.5C2427.668,936.333,2427.668,952.667,2427.668,969C2427.668,985.333,2427.668,1001.667,2427.668,1020.5C2427.668,1039.333,2427.668,1060.667,2427.668,1082C2427.668,1103.333,2427.668,1124.667,2427.668,1141.5C2427.668,1158.333,2427.668,1170.667,2427.668,1183C2427.668,1195.333,2427.668,1207.667,2427.668,1226.5C2427.668,1245.333,2427.668,1270.667,2427.668,1296C2427.668,1321.333,2427.668,1346.667,2427.668,1367.5C2427.668,1388.333,2427.668,1404.667,2427.668,1424.333C2427.668,1444,2427.668,1467,2427.668,1490C2427.668,1513,2427.668,1536,2427.668,1555.667C2427.668,1575.333,2427.668,1591.667,2427.668,1614.5C2427.668,1637.333,2427.668,1666.667,2427.668,1696C2427.668,1725.333,2427.668,1754.667,2427.668,1777.5C2427.668,1800.333,2427.668,1816.667,2427.668,1836.333C2427.668,1856,2427.668,1879,2427.668,1900C2427.668,1921,2427.668,1940,2427.668,1955.667C2427.668,1971.333,2427.668,1983.667,2338.795,2004.312C2249.921,2024.958,2072.174,2053.916,1983.301,2068.394L1894.427,2082.873" id="my-svg-edge27" class="edge-thickness-normal edge-pattern-solid transition" style="fill:none;;;fill:none" data-edge="true" data-et="edge" data-id="edge27" data-points="W3sieCI6MjQyNy42Njc5Njg3NSwieSI6NjQ2fSx7IngiOjI0MjcuNjY3OTY4NzUsInkiOjcwN30seyJ4IjoyNDI3LjY2Nzk2ODc1LCJ5Ijo3Njh9LHsieCI6MjQyNy42Njc5Njg3NSwieSI6ODQ0fSx7IngiOjI0MjcuNjY3OTY4NzUsInkiOjkyMH0seyJ4IjoyNDI3LjY2Nzk2ODc1LCJ5Ijo5Njl9LHsieCI6MjQyNy42Njc5Njg3NSwieSI6MTAxOH0seyJ4IjoyNDI3LjY2Nzk2ODc1LCJ5IjoxMDgyfSx7IngiOjI0MjcuNjY3OTY4NzUsInkiOjExNDZ9LHsieCI6MjQyNy42Njc5Njg3NSwieSI6MTE4M30seyJ4IjoyNDI3LjY2Nzk2ODc1LCJ5IjoxMjIwfSx7IngiOjI0MjcuNjY3OTY4NzUsInkiOjEyOTZ9LHsieCI6MjQyNy42Njc5Njg3NSwieSI6MTM3Mn0seyJ4IjoyNDI3LjY2Nzk2ODc1LCJ5IjoxNDIxfSx7IngiOjI0MjcuNjY3OTY4NzUsInkiOjE0OTB9LHsieCI6MjQyNy42Njc5Njg3NSwieSI6MTU1OX0seyJ4IjoyNDI3LjY2Nzk2ODc1LCJ5IjoxNjA4fSx7IngiOjI0MjcuNjY3OTY4NzUsInkiOjE2OTZ9LHsieCI6MjQyNy42Njc5Njg3NSwieSI6MTc4NH0seyJ4IjoyNDI3LjY2Nzk2ODc1LCJ5IjoxODMzfSx7IngiOjI0MjcuNjY3OTY4NzUsInkiOjE5MDJ9LHsieCI6MjQyNy42Njc5Njg3NSwieSI6MTk1OX0seyJ4IjoyNDI3LjY2Nzk2ODc1LCJ5IjoxOTk2fSx7IngiOjE4OTQuNDI3MTkyNjM3MDc5NSwieSI6MjA4Mi44NzMzNTk4ODA0NzMzfV0=" data-look="classic" marker-end="url(#my-svg_stateDiagram-barbEnd)"/><path d="M2089.313,864L2089.313,873.333C2089.313,882.667,2089.313,901.333,2089.313,918.833C2089.313,936.333,2089.313,952.667,2089.313,969C2089.313,985.333,2089.313,1001.667,2089.313,1020.5C2089.313,1039.333,2089.313,1060.667,2089.313,1082C2089.313,1103.333,2089.313,1124.667,2089.313,1141.5C2089.313,1158.333,2089.313,1170.667,2089.313,1183C2089.313,1195.333,2089.313,1207.667,2089.313,1226.5C2089.313,1245.333,2089.313,1270.667,2089.313,1296C2089.313,1321.333,2089.313,1346.667,2089.313,1367.5C2089.313,1388.333,2089.313,1404.667,2089.313,1424.333C2089.313,1444,2089.313,1467,2089.313,1490C2089.313,1513,2089.313,1536,2089.313,1555.667C2089.313,1575.333,2089.313,1591.667,2089.313,1614.5C2089.313,1637.333,2089.313,1666.667,2089.313,1696C2089.313,1725.333,2089.313,1754.667,2089.313,1777.5C2089.313,1800.333,2089.313,1816.667,2089.313,1836.333C2089.313,1856,2089.313,1879,2089.313,1900C2089.313,1921,2089.313,1940,2089.313,1955.667C2089.313,1971.333,2089.313,1983.667,2056.75,2004.033C2024.187,2024.4,1959.061,2052.8,1926.497,2066.999L1893.934,2081.199" id="my-svg-edge28" class="edge-thickness-normal edge-pattern-solid transition" style="fill:none;;;fill:none" data-edge="true" data-et="edge" data-id="edge28" data-points="W3sieCI6MjA4OS4zMTMwODI5MzM0MjYsInkiOjg2NH0seyJ4IjoyMDg5LjMxMzA4MjkzMzQyNiwieSI6OTIwfSx7IngiOjIwODkuMzEzMDgyOTMzNDI2LCJ5Ijo5Njl9LHsieCI6MjA4OS4zMTMwODI5MzM0MjYsInkiOjEwMTh9LHsieCI6MjA4OS4zMTMwODI5MzM0MjYsInkiOjEwODJ9LHsieCI6MjA4OS4zMTMwODI5MzM0MjYsInkiOjExNDZ9LHsieCI6MjA4OS4zMTMwODI5MzM0MjYsInkiOjExODN9LHsieCI6MjA4OS4zMTMwODI5MzM0MjYsInkiOjEyMjB9LHsieCI6MjA4OS4zMTMwODI5MzM0MjYsInkiOjEyOTZ9LHsieCI6MjA4OS4zMTMwODI5MzM0MjYsInkiOjEzNzJ9LHsieCI6MjA4OS4zMTMwODI5MzM0MjYsInkiOjE0MjF9LHsieCI6MjA4OS4zMTMwODI5MzM0MjYsInkiOjE0OTB9LHsieCI6MjA4OS4zMTMwODI5MzM0MjYsInkiOjE1NTl9LHsieCI6MjA4OS4zMTMwODI5MzM0MjYsInkiOjE2MDh9LHsieCI6MjA4OS4zMTMwODI5MzM0MjYsInkiOjE2OTZ9LHsieCI6MjA4OS4zMTMwODI5MzM0MjYsInkiOjE3ODR9LHsieCI6MjA4OS4zMTMwODI5MzM0MjYsInkiOjE4MzN9LHsieCI6MjA4OS4zMTMwODI5MzM0MjYsInkiOjE5MDJ9LHsieCI6MjA4OS4zMTMwODI5MzM0MjYsInkiOjE5NTl9LHsieCI6MjA4OS4zMTMwODI5MzM0MjYsInkiOjE5OTZ9LHsieCI6MTg5My45MzQyNzE4MjA2MDk2LCJ5IjoyMDgxLjE5OTMwMjAzMzk1NX1d" data-look="classic" marker-end="url(#my-svg_stateDiagram-barbEnd)"/><path d="M1811.691,1922L1811.691,1928.167C1811.691,1934.333,1811.691,1946.667,1811.691,1959C1811.691,1971.333,1811.691,1983.667,1823.566,2003.615C1835.44,2023.564,1859.189,2051.128,1871.064,2064.91L1882.938,2078.692" id="my-svg-edge29" class="edge-thickness-normal edge-pattern-solid transition" style="fill:none;;;fill:none" data-edge="true" data-et="edge" data-id="edge29" data-points="W3sieCI6MTgxMS42OTE0MDYyNSwieSI6MTkyMn0seyJ4IjoxODExLjY5MTQwNjI1LCJ5IjoxOTU5fSx7IngiOjE4MTEuNjkxNDA2MjUsInkiOjE5OTZ9LHsieCI6MTg4Mi45MzgyNDY2NDI5OTk1LCJ5IjoyMDc4LjY5MTg1MDYxMTcyMDR9XQ==" data-look="classic" marker-end="url(#my-svg_stateDiagram-barbEnd)"/><path d="M2264.196,1905.061L2168.846,1914.051C2073.496,1923.041,1882.797,1941.02,1787.447,1956.177C1692.098,1971.333,1692.098,1983.667,1723.602,2004.02C1755.106,2024.374,1818.115,2052.749,1849.619,2066.936L1881.123,2081.123" id="my-svg-edge30" class="edge-thickness-normal edge-pattern-solid transition" style="fill:none;;;fill:none" data-edge="true" data-et="edge" data-id="edge30" data-points="W3sieCI6MjI2NC4xOTU4OTU0MzM0MjYsInkiOjE5MDUuMDYxMjMwMjQxMDAyMn0seyJ4IjoxNjkyLjA5NzY1NjI1LCJ5IjoxOTU5fSx7IngiOjE2OTIuMDk3NjU2MjUsInkiOjE5OTZ9LHsieCI6MTg4MS4xMjI5ODYyMzQyOTY2LCJ5IjoyMDgxLjEyMjk4ODcyMzU4OH1d" data-look="classic" marker-end="url(#my-svg_stateDiagram-barbEnd)"/><path d="M1511.501,1922L1511.501,1928.167C1511.501,1934.333,1511.501,1946.667,1511.501,1959C1511.501,1971.333,1511.501,1983.667,1573.032,2004.234C1634.564,2024.801,1757.626,2053.602,1819.158,2068.003L1880.689,2082.403" id="my-svg-edge31" class="edge-thickness-normal edge-pattern-solid transition" style="fill:none;;;fill:none" data-edge="true" data-et="edge" data-id="edge31" data-points="W3sieCI6MTUxMS41MDA1ODI5MzM0MjYsInkiOjE5MjJ9LHsieCI6MTUxMS41MDA1ODI5MzM0MjYsInkiOjE5NTl9LHsieCI6MTUxMS41MDA1ODI5MzM0MjYsInkiOjE5OTZ9LHsieCI6MTg4MC42ODk0MTkyNTc4ODQsInkiOjIwODIuNDAzMzM4ODk1Nzk1fV0=" data-look="classic" marker-end="url(#my-svg_stateDiagram-barbEnd)"/><path d="M1872.954,117.769L1683.2,126.974C1493.447,136.179,1113.941,154.59,924.187,169.961C734.434,185.333,734.434,197.667,734.434,208C734.434,218.333,734.434,226.667,734.434,230.833L734.434,235" id="my-svg-Created-Created----note-32" class="edge-thickness-normal edge-pattern-solid transition note-edge" style="fill:none;;;fill:none" data-edge="true" data-et="edge" data-id="Created-Created----note-32" data-points="W3sieCI6MTg3Mi45NTM3MDc5MzM0MjYsInkiOjExNy43Njg3NzI3NTIyMDY2Nn0seyJ4Ijo3MzQuNDM0MTc2NjgzNDI1OSwieSI6MTczfSx7IngiOjczNC40MzQxNzY2ODM0MjU5LCJ5IjoyMTB9LHsieCI6NzM0LjQzNDE3NjY4MzQyNTksInkiOjIzNX1d" data-look="classic"/><path d="M1405.251,628.871L1195.46,641.892C985.67,654.914,566.089,680.957,356.298,704.145C146.508,727.333,146.508,747.667,146.508,762C146.508,776.333,146.508,784.667,146.508,788.833L146.508,793" id="my-svg-Authorized-Authorized----note-33" class="edge-thickness-normal edge-pattern-solid transition note-edge" style="fill:none;;;fill:none" data-edge="true" data-et="edge" data-id="Authorized-Authorized----note-33" data-points="W3sieCI6MTQwNS4yNTA1ODI5MzM0MjYsInkiOjYyOC44NzA3MDU1NTg1ODc3fSx7IngiOjE0Ni41MDc4MTI1LCJ5Ijo3MDd9LHsieCI6MTQ2LjUwNzgxMjUsInkiOjc2OH0seyJ4IjoxNDYuNTA3ODEyNSwieSI6NzkzfV0=" data-look="classic"/><path d="M391.034,864L381.357,873.333C371.68,882.667,352.326,901.333,342.649,918.833C332.973,936.333,332.973,952.667,332.973,969C332.973,985.333,332.973,1001.667,332.973,1014C332.973,1026.333,332.973,1034.667,332.973,1038.833L332.973,1043" id="my-svg-Captured-Captured----note-34" class="edge-thickness-normal edge-pattern-solid transition note-edge" style="fill:none;;;fill:none" data-edge="true" data-et="edge" data-id="Captured-Captured----note-34" data-points="W3sieCI6MzkxLjAzMzUxMTUxMzE1NzksInkiOjg2NH0seyJ4IjozMzIuOTcyNjU2MjUsInkiOjkyMH0seyJ4IjozMzIuOTcyNjU2MjUsInkiOjk2OX0seyJ4IjozMzIuOTcyNjU2MjUsInkiOjEwMTh9LHsieCI6MzMyLjk3MjY1NjI1LCJ5IjoxMDQzfV0=" data-look="classic"/><path d="M1191.102,1084.871L1074.346,1095.059C957.59,1105.248,724.078,1125.624,607.322,1141.979C490.566,1158.333,490.566,1170.667,490.566,1183C490.566,1195.333,490.566,1207.667,490.566,1218C490.566,1228.333,490.566,1236.667,490.566,1240.833L490.566,1245" id="my-svg-Settled-Settled----note-35" class="edge-thickness-normal edge-pattern-solid transition note-edge" style="fill:none;;;fill:none" data-edge="true" data-et="edge" data-id="Settled-Settled----note-35" data-points="W3sieCI6MTE5MS4xMDIxNDU0MzM0MjYsInkiOjEwODQuODcxMzkyNzM1OTc0NX0seyJ4Ijo0OTAuNTY2NDA2MjUsInkiOjExNDZ9LHsieCI6NDkwLjU2NjQwNjI1LCJ5IjoxMTgzfSx7IngiOjQ5MC41NjY0MDYyNSwieSI6MTIyMH0seyJ4Ijo0OTAuNTY2NDA2MjUsInkiOjEyNDV9XQ==" data-look="classic"/><path d="M1033.897,1510L1021.375,1518.167C1008.853,1526.333,983.809,1542.667,971.288,1559C958.766,1575.333,958.766,1591.667,958.766,1604C958.766,1616.333,958.766,1624.667,958.766,1628.833L958.766,1633" id="my-svg-Disputed-Disputed----note-36" class="edge-thickness-normal edge-pattern-solid transition note-edge" style="fill:none;;;fill:none" data-edge="true" data-et="edge" data-id="Disputed-Disputed----note-36" data-points="W3sieCI6MTAzMy44OTcxNTMwOTc2NTAzLCJ5IjoxNTEwfSx7IngiOjk1OC43NjU2MjUsInkiOjE1NTl9LHsieCI6OTU4Ljc2NTYyNSwieSI6MTYwOH0seyJ4Ijo5NTguNzY1NjI1LCJ5IjoxNjMzfV0=" data-look="classic"/><path d="M2329.133,1908.148L2373.889,1916.624C2418.645,1925.099,2508.156,1942.049,2552.912,1956.691C2597.668,1971.333,2597.668,1983.667,2597.668,1994C2597.668,2004.333,2597.668,2012.667,2597.668,2016.833L2597.668,2021" id="my-svg-Voided-Voided----note-37" class="edge-thickness-normal edge-pattern-solid transition note-edge" style="fill:none;;;fill:none" data-edge="true" data-et="edge" data-id="Voided-Voided----note-37" data-points="W3sieCI6MjMyOS4xMzMzOTU0MzM0MjYsInkiOjE5MDguMTQ4NDk5MzkwNjY0N30seyJ4IjoyNTk3LjY2Nzk2ODc1LCJ5IjoxOTU5fSx7IngiOjI1OTcuNjY3OTY4NzUsInkiOjE5OTZ9LHsieCI6MjU5Ny42Njc5Njg3NSwieSI6MjAyMX1d" data-look="classic"/></g><g class="edgeLabels"><g class="edgeLabel" transform="translate(1909.414645433426, 59)"><g class="label" data-id="edge0" transform="translate(-82.2734375, -12)"><foreignObject width="164.546875" height="24"><div xmlns="http://www.w3.org/1999/xhtml" class="labelBkg" style="display: table-cell; white-space: nowrap; line-height: 1.5; max-width: 200px; text-align: center;"><span class="edgeLabel"><p>Payment intent created</p></span></div></foreignObject></g></g><g class="edgeLabel" transform="translate(2051.69140625, 173)"><g class="label" data-id="edge1" transform="translate(-97.3671875, -12)"><foreignObject width="194.734375" height="24"><div xmlns="http://www.w3.org/1999/xhtml" class="labelBkg" style="display: table-cell; white-space: nowrap; line-height: 1.5; max-width: 200px; text-align: center;"><span class="edgeLabel"><p>Customer submits payment</p></span></div></foreignObject></g></g><g class="edgeLabel" transform="translate(2248.94140625, 448)"><g class="label" data-id="edge2" transform="translate(-100, -24)"><foreignObject width="200" height="48"><div xmlns="http://www.w3.org/1999/xhtml" class="labelBkg" style="display: table; white-space: break-spaces; line-height: 1.5; max-width: 200px; text-align: center; width: 200px;"><span class="edgeLabel"><p>⏰ Session timeout\n(15-30 min)</p></span></div></foreignObject></g></g><g class="edgeLabel" transform="translate(1811.69140625, 969)"><g class="label" data-id="edge3" transform="translate(-72.046875, -12)"><foreignObject width="144.09375" height="24"><div xmlns="http://www.w3.org/1999/xhtml" class="labelBkg" style="display: table-cell; white-space: nowrap; line-height: 1.5; max-width: 200px; text-align: center;"><span class="edgeLabel"><p>Customer abandons</p></span></div></foreignObject></g></g><g class="edgeLabel" transform="translate(2051.69140625, 375)"><g class="label" data-id="edge4" transform="translate(-77.828125, -12)"><foreignObject width="155.65625" height="24"><div xmlns="http://www.w3.org/1999/xhtml" class="labelBkg" style="display: table-cell; white-space: nowrap; line-height: 1.5; max-width: 200px; text-align: center;"><span class="edgeLabel"><p>3DS / redirect needed</p></span></div></foreignObject></g></g><g class="edgeLabel" transform="translate(1632.09765625, 448)"><g class="label" data-id="edge5" transform="translate(-100, -36)"><foreignObject width="200" height="72"><div xmlns="http://www.w3.org/1999/xhtml" class="labelBkg" style="display: table; white-space: break-spaces; line-height: 1.5; max-width: 200px; text-align: center; width: 200px;"><span class="edgeLabel"><p>Direct authorization\nsucceeded ✅</p></span></div></foreignObject></g></g><g class="edgeLabel" transform="translate(2482.03125, 448)"><g class="label" data-id="edge6" transform="translate(-95.390625, -12)"><foreignObject width="190.78125" height="24"><div xmlns="http://www.w3.org/1999/xhtml" class="labelBkg" style="display: table-cell; white-space: nowrap; line-height: 1.5; max-width: 200px; text-align: center;"><span class="edgeLabel"><p>Authorization\ndeclined ❌</p></span></div></foreignObject></g></g><g class="edgeLabel" transform="translate(1606.44323, 507.96893)"><g class="label" data-id="edge7" transform="translate(-100, -36)"><foreignObject width="200" height="72"><div xmlns="http://www.w3.org/1999/xhtml" class="labelBkg" style="display: table; white-space: break-spaces; line-height: 1.5; max-width: 200px; text-align: center; width: 200px;"><span class="edgeLabel"><p>Customer completes\nauthentication ✅</p></span></div></foreignObject></g></g><g class="edgeLabel" transform="translate(2278.79083, 516.4942)"><g class="label" data-id="edge8" transform="translate(-88.7265625, -12)"><foreignObject width="177.453125" height="24"><div xmlns="http://www.w3.org/1999/xhtml" class="labelBkg" style="display: table-cell; white-space: nowrap; line-height: 1.5; max-width: 200px; text-align: center;"><span class="edgeLabel"><p>Authentication\nfailed ❌</p></span></div></foreignObject></g></g><g class="edgeLabel" transform="translate(2051.69140625, 626)"><g class="label" data-id="edge9" transform="translate(-76.7109375, -12)"><foreignObject width="153.421875" height="24"><div xmlns="http://www.w3.org/1999/xhtml" class="labelBkg" style="display: table-cell; white-space: nowrap; line-height: 1.5; max-width: 200px; text-align: center;"><span class="edgeLabel"><p>⏰ Challenge timeout</p></span></div></foreignObject></g></g><g class="edgeLabel" transform="translate(411.76953125, 707)"><g class="label" data-id="edge10" transform="translate(-100, -36)"><foreignObject width="200" height="72"><div xmlns="http://www.w3.org/1999/xhtml" class="labelBkg" style="display: table; white-space: break-spaces; line-height: 1.5; max-width: 200px; text-align: center; width: 200px;"><span class="edgeLabel"><p>Merchant captures\n(immediate or delayed)</p></span></div></foreignObject></g></g><g class="edgeLabel" transform="translate(1572.09765625, 707)"><g class="label" data-id="edge11" transform="translate(-100, -24)"><foreignObject width="200" height="48"><div xmlns="http://www.w3.org/1999/xhtml" class="labelBkg" style="display: table; white-space: break-spaces; line-height: 1.5; max-width: 200px; text-align: center; width: 200px;"><span class="edgeLabel"><p>Merchant captures\nless than auth amount</p></span></div></foreignObject></g></g><g class="edgeLabel" transform="translate(2296.664645433426, 1296)"><g class="label" data-id="edge12" transform="translate(-100, -24)"><foreignObject width="200" height="48"><div xmlns="http://www.w3.org/1999/xhtml" class="labelBkg" style="display: table; white-space: break-spaces; line-height: 1.5; max-width: 200px; text-align: center; width: 200px;"><span class="edgeLabel"><p>Merchant voids\nbefore capture</p></span></div></foreignObject></g></g><g class="edgeLabel" transform="translate(1931.69140625, 707)"><g class="label" data-id="edge13" transform="translate(-100, -24)"><foreignObject width="200" height="48"><div xmlns="http://www.w3.org/1999/xhtml" class="labelBkg" style="display: table; white-space: break-spaces; line-height: 1.5; max-width: 200px; text-align: center; width: 200px;"><span class="edgeLabel"><p>⏰ Auth expires\n(7-30 days)</p></span></div></foreignObject></g></g><g class="edgeLabel" transform="translate(1497.23046875, 969)"><g class="label" data-id="edge14" transform="translate(-81.375, -12)"><foreignObject width="162.75" height="24"><div xmlns="http://www.w3.org/1999/xhtml" class="labelBkg" style="display: table-cell; white-space: nowrap; line-height: 1.5; max-width: 200px; text-align: center;"><span class="edgeLabel"><p>Settlement\ncompletes</p></span></div></foreignObject></g></g><g class="edgeLabel" transform="translate(1625.296875, 1082)"><g class="label" data-id="edge15" transform="translate(-81.828125, -12)"><foreignObject width="163.65625" height="24"><div xmlns="http://www.w3.org/1999/xhtml" class="labelBkg" style="display: table-cell; white-space: nowrap; line-height: 1.5; max-width: 200px; text-align: center;"><span class="edgeLabel"><p>Partial refund\ninitiated</p></span></div></foreignObject></g></g><g class="edgeLabel" transform="translate(514.51953125, 969)"><g class="label" data-id="edge16" transform="translate(-100, -24)"><foreignObject width="200" height="48"><div xmlns="http://www.w3.org/1999/xhtml" class="labelBkg" style="display: table; white-space: break-spaces; line-height: 1.5; max-width: 200px; text-align: center; width: 200px;"><span class="edgeLabel"><p>Batch settlement\nT+1 to T+3</p></span></div></foreignObject></g></g><g class="edgeLabel" transform="translate(1695.296875, 1490)"><g class="label" data-id="edge17" transform="translate(-93.6015625, -12)"><foreignObject width="187.203125" height="24"><div xmlns="http://www.w3.org/1999/xhtml" class="labelBkg" style="display: table-cell; white-space: nowrap; line-height: 1.5; max-width: 200px; text-align: center;"><span class="edgeLabel"><p>Full refund\nprocessed 💰</p></span></div></foreignObject></g></g><g class="edgeLabel" transform="translate(1494.84765625, 1183)"><g class="label" data-id="edge18" transform="translate(-91.1640625, -12)"><foreignObject width="182.328125" height="24"><div xmlns="http://www.w3.org/1999/xhtml" class="labelBkg" style="display: table-cell; white-space: nowrap; line-height: 1.5; max-width: 200px; text-align: center;"><span class="edgeLabel"><p>Partial refund\nprocessed</p></span></div></foreignObject></g></g><g class="edgeLabel" transform="translate(1336.19140625, 1296)"><g class="label" data-id="edge19" transform="translate(-100, -24)"><foreignObject width="200" height="48"><div xmlns="http://www.w3.org/1999/xhtml" class="labelBkg" style="display: table; white-space: break-spaces; line-height: 1.5; max-width: 200px; text-align: center; width: 200px;"><span class="edgeLabel"><p>Customer files\nchargeback ⚠️</p></span></div></foreignObject></g></g><g class="edgeLabel" transform="translate(1569.71484375, 1559)"><g class="label" data-id="edge20" transform="translate(-100, -24)"><foreignObject width="200" height="48"><div xmlns="http://www.w3.org/1999/xhtml" class="labelBkg" style="display: table; white-space: break-spaces; line-height: 1.5; max-width: 200px; text-align: center; width: 200px;"><span class="edgeLabel"><p>Remaining amount\nrefunded</p></span></div></foreignObject></g></g><g class="edgeLabel" transform="translate(883.23828125, 1421)"><g class="label" data-id="edge21" transform="translate(-100, -24)"><foreignObject width="200" height="48"><div xmlns="http://www.w3.org/1999/xhtml" class="labelBkg" style="display: table; white-space: break-spaces; line-height: 1.5; max-width: 200px; text-align: center; width: 200px;"><span class="edgeLabel"><p>Customer disputes\nremaining</p></span></div></foreignObject></g></g><g class="edgeLabel" transform="translate(755.55078125, 1559)"><g class="label" data-id="edge22" transform="translate(-96.265625, -12)"><foreignObject width="192.53125" height="24"><div xmlns="http://www.w3.org/1999/xhtml" class="labelBkg" style="display: table-cell; white-space: nowrap; line-height: 1.5; max-width: 200px; text-align: center;"><span class="edgeLabel"><p>Merchant wins\ndispute ✅</p></span></div></foreignObject></g></g><g class="edgeLabel" transform="translate(1194.015625, 1559)"><g class="label" data-id="edge23" transform="translate(-98.9375, -12)"><foreignObject width="197.875" height="24"><div xmlns="http://www.w3.org/1999/xhtml" class="labelBkg" style="display: table-cell; white-space: nowrap; line-height: 1.5; max-width: 200px; text-align: center;"><span class="edgeLabel"><p>Merchant loses\ndispute ❌</p></span></div></foreignObject></g></g><g class="edgeLabel" transform="translate(1379.265625, 1696)"><g class="label" data-id="edge24" transform="translate(-100, -24)"><foreignObject width="200" height="48"><div xmlns="http://www.w3.org/1999/xhtml" class="labelBkg" style="display: table; white-space: break-spaces; line-height: 1.5; max-width: 200px; text-align: center; width: 200px;"><span class="edgeLabel"><p>Merchant accepts\n&amp; refunds</p></span></div></foreignObject></g></g><g class="edgeLabel" transform="translate(639.28515625, 1421)"><g class="label" data-id="edge25" transform="translate(-100, -24)"><foreignObject width="200" height="48"><div xmlns="http://www.w3.org/1999/xhtml" class="labelBkg" style="display: table; white-space: break-spaces; line-height: 1.5; max-width: 200px; text-align: center; width: 200px;"><span class="edgeLabel"><p>Funds returned\nto merchant</p></span></div></foreignObject></g></g><g class="edgeLabel" transform="translate(1194.015625, 1833)"><g class="label" data-id="edge26" transform="translate(-100, -24)"><foreignObject width="200" height="48"><div xmlns="http://www.w3.org/1999/xhtml" class="labelBkg" style="display: table; white-space: break-spaces; line-height: 1.5; max-width: 200px; text-align: center; width: 200px;"><span class="edgeLabel"><p>Funds returned\nto customer</p></span></div></foreignObject></g></g><g class="edgeLabel" transform="translate(2427.66796875, 1421)"><g class="label" data-id="edge27" transform="translate(-49.796875, -12)"><foreignObject width="99.59375" height="24"><div xmlns="http://www.w3.org/1999/xhtml" class="labelBkg" style="display: table-cell; white-space: nowrap; line-height: 1.5; max-width: 200px; text-align: center;"><span class="edgeLabel"><p>Terminal state</p></span></div></foreignObject></g></g><g class="edgeLabel" transform="translate(2089.313082933426, 1490)"><g class="label" data-id="edge28" transform="translate(-49.796875, -12)"><foreignObject width="99.59375" height="24"><div xmlns="http://www.w3.org/1999/xhtml" class="labelBkg" style="display: table-cell; white-space: nowrap; line-height: 1.5; max-width: 200px; text-align: center;"><span class="edgeLabel"><p>Terminal state</p></span></div></foreignObject></g></g><g class="edgeLabel" transform="translate(1811.69140625, 1959)"><g class="label" data-id="edge29" transform="translate(-49.796875, -12)"><foreignObject width="99.59375" height="24"><div xmlns="http://www.w3.org/1999/xhtml" class="labelBkg" style="display: table-cell; white-space: nowrap; line-height: 1.5; max-width: 200px; text-align: center;"><span class="edgeLabel"><p>Terminal state</p></span></div></foreignObject></g></g><g class="edgeLabel" transform="translate(1692.09765625, 1959)"><g class="label" data-id="edge30" transform="translate(-49.796875, -12)"><foreignObject width="99.59375" height="24"><div xmlns="http://www.w3.org/1999/xhtml" class="labelBkg" style="display: table-cell; white-space: nowrap; line-height: 1.5; max-width: 200px; text-align: center;"><span class="edgeLabel"><p>Terminal state</p></span></div></foreignObject></g></g><g class="edgeLabel" transform="translate(1511.500582933426, 1959)"><g class="label" data-id="edge31" transform="translate(-49.796875, -12)"><foreignObject width="99.59375" height="24"><div xmlns="http://www.w3.org/1999/xhtml" class="labelBkg" style="display: table-cell; white-space: nowrap; line-height: 1.5; max-width: 200px; text-align: center;"><span class="edgeLabel"><p>Terminal state</p></span></div></foreignObject></g></g><g class="edgeLabel"><g class="label" data-id="Created-Created----note-32" transform="translate(0, 0)"><foreignObject width="0" height="0"><div xmlns="http://www.w3.org/1999/xhtml" class="labelBkg" style="display: table-cell; white-space: nowrap; line-height: 1.5; max-width: 200px; text-align: center;"><span class="edgeLabel"></span></div></foreignObject></g></g><g class="edgeLabel"><g class="label" data-id="Authorized-Authorized----note-33" transform="translate(0, 0)"><foreignObject width="0" height="0"><div xmlns="http://www.w3.org/1999/xhtml" class="labelBkg" style="display: table-cell; white-space: nowrap; line-height: 1.5; max-width: 200px; text-align: center;"><span class="edgeLabel"></span></div></foreignObject></g></g><g class="edgeLabel"><g class="label" data-id="Captured-Captured----note-34" transform="translate(0, 0)"><foreignObject width="0" height="0"><div xmlns="http://www.w3.org/1999/xhtml" class="labelBkg" style="display: table-cell; white-space: nowrap; line-height: 1.5; max-width: 200px; text-align: center;"><span class="edgeLabel"></span></div></foreignObject></g></g><g class="edgeLabel"><g class="label" data-id="Settled-Settled----note-35" transform="translate(0, 0)"><foreignObject width="0" height="0"><div xmlns="http://www.w3.org/1999/xhtml" class="labelBkg" style="display: table-cell; white-space: nowrap; line-height: 1.5; max-width: 200px; text-align: center;"><span class="edgeLabel"></span></div></foreignObject></g></g><g class="edgeLabel"><g class="label" data-id="Disputed-Disputed----note-36" transform="translate(0, 0)"><foreignObject width="0" height="0"><div xmlns="http://www.w3.org/1999/xhtml" class="labelBkg" style="display: table-cell; white-space: nowrap; line-height: 1.5; max-width: 200px; text-align: center;"><span class="edgeLabel"></span></div></foreignObject></g></g><g class="edgeLabel"><g class="label" data-id="Voided-Voided----note-37" transform="translate(0, 0)"><foreignObject width="0" height="0"><div xmlns="http://www.w3.org/1999/xhtml" class="labelBkg" style="display: table-cell; white-space: nowrap; line-height: 1.5; max-width: 200px; text-align: center;"><span class="edgeLabel"></span></div></foreignObject></g></g></g><g class="nodes"><g class="node default" id="my-svg-state-root_start-0" data-look="classic" transform="translate(1909.414645433426, 15)"><circle class="state-start" r="7" width="14" height="14"/></g><g class="node  statediagram-state" id="my-svg-state-Created-32" data-look="classic" transform="translate(1909.414645433426, 116)"><rect class="basic label-container" style="" rx="5" ry="5" x="-36.4609375" y="-20" width="72.921875" height="40"/><g class="label" style="" transform="translate(-28.4609375, -12)"><rect/><foreignObject width="56.921875" height="24"><div xmlns="http://www.w3.org/1999/xhtml" style="display: table-cell; white-space: nowrap; line-height: 1.5; max-width: 200px; text-align: center;"><span class="nodeLabel markdown-node-label"><p>Created</p></span></div></foreignObject></g></g><g class="node  statediagram-state" id="my-svg-state-Pending-6" data-look="classic" transform="translate(2051.69140625, 274)"><rect class="basic label-container" style="" rx="5" ry="5" x="-37.359375" y="-20" width="74.71875" height="40"/><g class="label" style="" transform="translate(-29.359375, -12)"><rect/><foreignObject width="58.71875" height="24"><div xmlns="http://www.w3.org/1999/xhtml" style="display: table-cell; white-space: nowrap; line-height: 1.5; max-width: 200px; text-align: center;"><span class="nodeLabel markdown-node-label"><p>Pending</p></span></div></foreignObject></g></g><g class="node  statediagram-state" id="my-svg-state-Expired-28" data-look="classic" transform="translate(2089.313082933426, 844)"><rect class="basic label-container" style="" rx="5" ry="5" x="-35.125" y="-20" width="70.25" height="40"/><g class="label" style="" transform="translate(-27.125, -12)"><rect/><foreignObject width="54.25" height="24"><div xmlns="http://www.w3.org/1999/xhtml" style="display: table-cell; white-space: nowrap; line-height: 1.5; max-width: 200px; text-align: center;"><span class="nodeLabel markdown-node-label"><p>Expired</p></span></div></foreignObject></g></g><g class="node  statediagram-state" id="my-svg-state-Cancelled-29" data-look="classic" transform="translate(1811.69140625, 1902)"><rect class="basic label-container" style="" rx="5" ry="5" x="-43.578125" y="-20" width="87.15625" height="40"/><g class="label" style="" transform="translate(-35.578125, -12)"><rect/><foreignObject width="71.15625" height="24"><div xmlns="http://www.w3.org/1999/xhtml" style="display: table-cell; white-space: nowrap; line-height: 1.5; max-width: 200px; text-align: center;"><span class="nodeLabel markdown-node-label"><p>Cancelled</p></span></div></foreignObject></g></g><g class="node  statediagram-state" id="my-svg-state-RequiresAction-9" data-look="classic" transform="translate(2051.69140625, 448)"><rect class="basic label-container" style="" rx="5" ry="5" x="-62.25" y="-20" width="124.5" height="40"/><g class="label" style="" transform="translate(-54.25, -12)"><rect/><foreignObject width="108.5" height="24"><div xmlns="http://www.w3.org/1999/xhtml" style="display: table-cell; white-space: nowrap; line-height: 1.5; max-width: 200px; text-align: center;"><span class="nodeLabel markdown-node-label"><p>RequiresAction</p></span></div></foreignObject></g></g><g class="node  statediagram-state" id="my-svg-state-Authorized-33" data-look="classic" transform="translate(1451.500582933426, 626)"><rect class="basic label-container" style="" rx="5" ry="5" x="-46.25" y="-20" width="92.5" height="40"/><g class="label" style="" transform="translate(-38.25, -12)"><rect/><foreignObject width="76.5" height="24"><div xmlns="http://www.w3.org/1999/xhtml" style="display: table-cell; white-space: nowrap; line-height: 1.5; max-width: 200px; text-align: center;"><span class="nodeLabel markdown-node-label"><p>Authorized</p></span></div></foreignObject></g></g><g class="node  statediagram-state" id="my-svg-state-Failed-27" data-look="classic" transform="translate(2427.66796875, 626)"><rect class="basic label-container" style="" rx="5" ry="5" x="-29.7890625" y="-20" width="59.578125" height="40"/><g class="label" style="" transform="translate(-21.7890625, -12)"><rect/><foreignObject width="43.578125" height="24"><div xmlns="http://www.w3.org/1999/xhtml" style="display: table-cell; white-space: nowrap; line-height: 1.5; max-width: 200px; text-align: center;"><span class="nodeLabel markdown-node-label"><p>Failed</p></span></div></foreignObject></g></g><g class="node  statediagram-state" id="my-svg-state-Captured-34" data-look="classic" transform="translate(411.76953125, 844)"><rect class="basic label-container" style="" rx="5" ry="5" x="-40.9140625" y="-20" width="81.828125" height="40"/><g class="label" style="" transform="translate(-32.9140625, -12)"><rect/><foreignObject width="65.828125" height="24"><div xmlns="http://www.w3.org/1999/xhtml" style="display: table-cell; white-space: nowrap; line-height: 1.5; max-width: 200px; text-align: center;"><span class="nodeLabel markdown-node-label"><p>Captured</p></span></div></foreignObject></g></g><g class="node  statediagram-state" id="my-svg-state-PartiallyCaptured-15" data-look="classic" transform="translate(1572.09765625, 844)"><rect class="basic label-container" style="" rx="5" ry="5" x="-69.3671875" y="-20" width="138.734375" height="40"/><g class="label" style="" transform="translate(-61.3671875, -12)"><rect/><foreignObject width="122.734375" height="24"><div xmlns="http://www.w3.org/1999/xhtml" style="display: table-cell; white-space: nowrap; line-height: 1.5; max-width: 200px; text-align: center;"><span class="nodeLabel markdown-node-label"><p>PartiallyCaptured</p></span></div></foreignObject></g></g><g class="node  statediagram-state" id="my-svg-state-Voided-37" data-look="classic" transform="translate(2296.664645433426, 1902)"><rect class="basic label-container" style="" rx="5" ry="5" x="-32.46875" y="-20" width="64.9375" height="40"/><g class="label" style="" transform="translate(-24.46875, -12)"><rect/><foreignObject width="48.9375" height="24"><div xmlns="http://www.w3.org/1999/xhtml" style="display: table-cell; white-space: nowrap; line-height: 1.5; max-width: 200px; text-align: center;"><span class="nodeLabel markdown-node-label"><p>Voided</p></span></div></foreignObject></g></g><g class="node  statediagram-state" id="my-svg-state-Settled-35" data-look="classic" transform="translate(1224.008395433426, 1082)"><rect class="basic label-container" style="" rx="5" ry="5" x="-32.90625" y="-20" width="65.8125" height="40"/><g class="label" style="" transform="translate(-24.90625, -12)"><rect/><foreignObject width="49.8125" height="24"><div xmlns="http://www.w3.org/1999/xhtml" style="display: table-cell; white-space: nowrap; line-height: 1.5; max-width: 200px; text-align: center;"><span class="nodeLabel markdown-node-label"><p>Settled</p></span></div></foreignObject></g></g><g class="node  statediagram-state" id="my-svg-state-PartiallyRefunded-21" data-look="classic" transform="translate(1569.71484375, 1296)"><rect class="basic label-container" style="" rx="5" ry="5" x="-71.1484375" y="-20" width="142.296875" height="40"/><g class="label" style="" transform="translate(-63.1484375, -12)"><rect/><foreignObject width="126.296875" height="24"><div xmlns="http://www.w3.org/1999/xhtml" style="display: table-cell; white-space: nowrap; line-height: 1.5; max-width: 200px; text-align: center;"><span class="nodeLabel markdown-node-label"><p>PartiallyRefunded</p></span></div></foreignObject></g></g><g class="node  statediagram-state" id="my-svg-state-Refunded-31" data-look="classic" transform="translate(1511.500582933426, 1902)"><rect class="basic label-container" style="" rx="5" ry="5" x="-42.6953125" y="-20" width="85.390625" height="40"/><g class="label" style="" transform="translate(-34.6953125, -12)"><rect/><foreignObject width="69.390625" height="24"><div xmlns="http://www.w3.org/1999/xhtml" style="display: table-cell; white-space: nowrap; line-height: 1.5; max-width: 200px; text-align: center;"><span class="nodeLabel markdown-node-label"><p>Refunded</p></span></div></foreignObject></g></g><g class="node  statediagram-state" id="my-svg-state-Disputed-36" data-look="classic" transform="translate(1064.563082933426, 1490)"><rect class="basic label-container" style="" rx="5" ry="5" x="-39.578125" y="-20" width="79.15625" height="40"/><g class="label" style="" transform="translate(-31.578125, -12)"><rect/><foreignObject width="63.15625" height="24"><div xmlns="http://www.w3.org/1999/xhtml" style="display: table-cell; white-space: nowrap; line-height: 1.5; max-width: 200px; text-align: center;"><span class="nodeLabel markdown-node-label"><p>Disputed</p></span></div></foreignObject></g></g><g class="node  statediagram-state" id="my-svg-state-DisputeWon-25" data-look="classic" transform="translate(697.41796875, 1696)"><rect class="basic label-container" style="" rx="5" ry="5" x="-51.4296875" y="-20" width="102.859375" height="40"/><g class="label" style="" transform="translate(-43.4296875, -12)"><rect/><foreignObject width="86.859375" height="24"><div xmlns="http://www.w3.org/1999/xhtml" style="display: table-cell; white-space: nowrap; line-height: 1.5; max-width: 200px; text-align: center;"><span class="nodeLabel markdown-node-label"><p>DisputeWon</p></span></div></foreignObject></g></g><g class="node  statediagram-state" id="my-svg-state-DisputeLost-26" data-look="classic" transform="translate(1194.015625, 1696)"><rect class="basic label-container" style="" rx="5" ry="5" x="-50.25" y="-20" width="100.5" height="40"/><g class="label" style="" transform="translate(-42.25, -12)"><rect/><foreignObject width="84.5" height="24"><div xmlns="http://www.w3.org/1999/xhtml" style="display: table-cell; white-space: nowrap; line-height: 1.5; max-width: 200px; text-align: center;"><span class="nodeLabel markdown-node-label"><p>DisputeLost</p></span></div></foreignObject></g></g><g class="node default" id="my-svg-state-root_end-31" data-look="classic" transform="translate(1887.51171875, 2084)"><g class="outer-path"><path d="M7 0 C7 0.40517908122283747, 6.964012880168563 0.816513743121899, 6.893654271085456 1.2155372436685123 C6.823295662002349 1.6145607442151257, 6.716427752933756 2.013397210557766, 6.5778483455013586 2.394141003279681 C6.439268938068961 2.7748847960015954, 6.26476736710249 3.149104622578984, 6.062177826491071 3.4999999999999996 C5.859588285879653 3.8508953774210153, 5.622755194947063 4.189128084166967, 5.362311101832846 4.499513267805774 C5.10186700871863 4.809898451444582, 4.809898451444583 5.10186700871863, 4.499513267805775 5.362311101832846 C4.189128084166968 5.622755194947063, 3.8508953774210166 5.859588285879652, 3.500000000000001 6.06217782649107 C3.149104622578985 6.264767367102489, 2.7748847960015963 6.439268938068961, 2.3941410032796817 6.5778483455013586 C2.013397210557767 6.716427752933756, 1.6145607442151264 6.823295662002349, 1.2155372436685128 6.893654271085456 C0.8165137431218992 6.964012880168563, 0.4051790812228379 7, 4.286263797015736e-16 7 C-0.405179081222837 7, -0.8165137431218985 6.964012880168563, -1.2155372436685121 6.893654271085456 C-1.6145607442151257 6.823295662002349, -2.0133972105577667 6.716427752933756, -2.394141003279681 6.5778483455013586 C-2.774884796001595 6.439268938068961, -3.149104622578983 6.26476736710249, -3.4999999999999982 6.062177826491071 C-3.8508953774210135 5.859588285879653, -4.189128084166966 5.6227551949470636, -4.499513267805773 5.362311101832848 C-4.809898451444581 5.101867008718632, -5.101867008718628 4.809898451444586, -5.3623111018328435 4.499513267805779 C-5.622755194947059 4.189128084166971, -5.859588285879649 3.8508953774210206, -6.062177826491068 3.5000000000000053 C-6.264767367102486 3.14910462257899, -6.439268938068958 2.774884796001602, -6.577848345501356 2.394141003279688 C-6.716427752933754 2.0133972105577738, -6.823295662002347 1.614560744215134, -6.893654271085454 1.215537243668521 C-6.9640128801685615 0.816513743121908, -6.999999999999999 0.4051790812228472, -7 1.0183126166254463e-14 C-7.000000000000001 -0.40517908122282686, -6.964012880168565 -0.8165137431218878, -6.893654271085459 -1.215537243668501 C-6.823295662002352 -1.6145607442151142, -6.716427752933759 -2.0133972105577542, -6.577848345501363 -2.394141003279669 C-6.439268938068967 -2.7748847960015834, -6.264767367102496 -3.149104622578972, -6.062177826491078 -3.4999999999999876 C-5.859588285879661 -3.8508953774210033, -5.6227551949470715 -4.1891280841669545, -5.362311101832856 -4.499513267805763 C-5.10186700871864 -4.809898451444571, -4.809898451444594 -5.10186700871862, -4.499513267805787 -5.362311101832836 C-4.189128084166979 -5.622755194947053, -3.850895377421028 -5.859588285879643, -3.5000000000000133 -6.062177826491062 C-3.1491046225789985 -6.264767367102482, -2.774884796001611 -6.439268938068954, -2.3941410032796973 -6.577848345501353 C-2.0133972105577835 -6.716427752933752, -1.6145607442151435 -6.823295662002345, -1.2155372436685306 -6.893654271085453 C-0.8165137431219176 -6.9640128801685615, -0.40517908122285695 -6.999999999999999, -1.9937625952807352e-14 -7 C0.4051790812228171 -7.000000000000001, 0.8165137431218781 -6.964012880168565, 1.2155372436684913 -6.89365427108546 C1.6145607442151044 -6.823295662002354, 2.013397210557745 -6.716427752933763, 2.3941410032796595 -6.5778483455013665 C2.774884796001574 -6.43926893806897, 3.149104622578963 -6.2647673671025, 3.499999999999979 -6.062177826491083 C3.8508953774209953 -5.859588285879665, 4.189128084166947 -5.622755194947077, 4.499513267805756 -5.362311101832862 C4.809898451444564 -5.1018670087186475, 5.101867008718613 -4.809898451444602, 5.362311101832829 -4.499513267805796 C5.622755194947046 -4.189128084166989, 5.859588285879637 -3.8508953774210393, 6.062177826491056 -3.500000000000025 C6.2647673671024755 -3.1491046225790105, 6.439268938068949 -2.774884796001623, 6.577848345501348 -2.3941410032797092 C6.716427752933747 -2.0133972105577955, 6.823295662002342 -1.6145607442151562, 6.893654271085451 -1.2155372436685434 C6.96401288016856 -0.8165137431219307, 6.982275711847575 -0.2025895406114567, 7 -3.2800750208310675e-14 C7.017724288152425 0.2025895406113911, 7.017724288152424 -0.2025895406114242, 7 0" stroke="none" stroke-width="0" fill="#4A90D9" style=""/><path d="M7 0 C7 0.40517908122283747, 6.964012880168563 0.816513743121899, 6.893654271085456 1.2155372436685123 C6.823295662002349 1.6145607442151257, 6.716427752933756 2.013397210557766, 6.5778483455013586 2.394141003279681 C6.439268938068961 2.7748847960015954, 6.26476736710249 3.149104622578984, 6.062177826491071 3.4999999999999996 C5.859588285879653 3.8508953774210153, 5.622755194947063 4.189128084166967, 5.362311101832846 4.499513267805774 C5.10186700871863 4.809898451444582, 4.809898451444583 5.10186700871863, 4.499513267805775 5.362311101832846 C4.189128084166968 5.622755194947063, 3.8508953774210166 5.859588285879652, 3.500000000000001 6.06217782649107 C3.149104622578985 6.264767367102489, 2.7748847960015963 6.439268938068961, 2.3941410032796817 6.5778483455013586 C2.013397210557767 6.716427752933756, 1.6145607442151264 6.823295662002349, 1.2155372436685128 6.893654271085456 C0.8165137431218992 6.964012880168563, 0.4051790812228379 7, 4.286263797015736e-16 7 C-0.405179081222837 7, -0.8165137431218985 6.964012880168563, -1.2155372436685121 6.893654271085456 C-1.6145607442151257 6.823295662002349, -2.0133972105577667 6.716427752933756, -2.394141003279681 6.5778483455013586 C-2.774884796001595 6.439268938068961, -3.149104622578983 6.26476736710249, -3.4999999999999982 6.062177826491071 C-3.8508953774210135 5.859588285879653, -4.189128084166966 5.6227551949470636, -4.499513267805773 5.362311101832848 C-4.809898451444581 5.101867008718632, -5.101867008718628 4.809898451444586, -5.3623111018328435 4.499513267805779 C-5.622755194947059 4.189128084166971, -5.859588285879649 3.8508953774210206, -6.062177826491068 3.5000000000000053 C-6.264767367102486 3.14910462257899, -6.439268938068958 2.774884796001602, -6.577848345501356 2.394141003279688 C-6.716427752933754 2.0133972105577738, -6.823295662002347 1.614560744215134, -6.893654271085454 1.215537243668521 C-6.9640128801685615 0.816513743121908, -6.999999999999999 0.4051790812228472, -7 1.0183126166254463e-14 C-7.000000000000001 -0.40517908122282686, -6.964012880168565 -0.8165137431218878, -6.893654271085459 -1.215537243668501 C-6.823295662002352 -1.6145607442151142, -6.716427752933759 -2.0133972105577542, -6.577848345501363 -2.394141003279669 C-6.439268938068967 -2.7748847960015834, -6.264767367102496 -3.149104622578972, -6.062177826491078 -3.4999999999999876 C-5.859588285879661 -3.8508953774210033, -5.6227551949470715 -4.1891280841669545, -5.362311101832856 -4.499513267805763 C-5.10186700871864 -4.809898451444571, -4.809898451444594 -5.10186700871862, -4.499513267805787 -5.362311101832836 C-4.189128084166979 -5.622755194947053, -3.850895377421028 -5.859588285879643, -3.5000000000000133 -6.062177826491062 C-3.1491046225789985 -6.264767367102482, -2.774884796001611 -6.439268938068954, -2.3941410032796973 -6.577848345501353 C-2.0133972105577835 -6.716427752933752, -1.6145607442151435 -6.823295662002345, -1.2155372436685306 -6.893654271085453 C-0.8165137431219176 -6.9640128801685615, -0.40517908122285695 -6.999999999999999, -1.9937625952807352e-14 -7 C0.4051790812228171 -7.000000000000001, 0.8165137431218781 -6.964012880168565, 1.2155372436684913 -6.89365427108546 C1.6145607442151044 -6.823295662002354, 2.013397210557745 -6.716427752933763, 2.3941410032796595 -6.5778483455013665 C2.774884796001574 -6.43926893806897, 3.149104622578963 -6.2647673671025, 3.499999999999979 -6.062177826491083 C3.8508953774209953 -5.859588285879665, 4.189128084166947 -5.622755194947077, 4.499513267805756 -5.362311101832862 C4.809898451444564 -5.1018670087186475, 5.101867008718613 -4.809898451444602, 5.362311101832829 -4.499513267805796 C5.622755194947046 -4.189128084166989, 5.859588285879637 -3.8508953774210393, 6.062177826491056 -3.500000000000025 C6.2647673671024755 -3.1491046225790105, 6.439268938068949 -2.774884796001623, 6.577848345501348 -2.3941410032797092 C6.716427752933747 -2.0133972105577955, 6.823295662002342 -1.6145607442151562, 6.893654271085451 -1.2155372436685434 C6.96401288016856 -0.8165137431219307, 6.982275711847575 -0.2025895406114567, 7 -3.2800750208310675e-14 C7.017724288152425 0.2025895406113911, 7.017724288152424 -0.2025895406114242, 7 0" stroke="#333" stroke-width="2" fill="none" stroke-dasharray="0 0" style=""/><g><path d="M2.5 0 C2.5 0.14470681472244193, 2.487147457203058 0.29161205111496386, 2.46201938253052 0.4341204441673258 C2.436891307857982 0.5766288372196877, 2.3987241974763416 0.7190704323420595, 2.3492315519647713 0.8550503583141718 C2.299738906453201 0.991030284286284, 2.2374169168223177 1.124680222349637, 2.165063509461097 1.2499999999999998 C2.092710102099876 1.3753197776503625, 2.0081268553382365 1.496117172916774, 1.915111107797445 1.6069690242163481 C1.8220953602566536 1.7178208755159223, 1.7178208755159226 1.8220953602566536, 1.6069690242163484 1.915111107797445 C1.4961171729167742 2.0081268553382365, 1.375319777650363 2.0927101020998755, 1.2500000000000002 2.1650635094610964 C1.1246802223496375 2.2374169168223172, 0.9910302842862845 2.2997389064532, 0.8550503583141721 2.349231551964771 C0.7190704323420597 2.3987241974763416, 0.576628837219688 2.436891307857982, 0.43412044416732604 2.46201938253052 C0.291612051114964 2.487147457203058, 0.14470681472244212 2.5, 1.5308084989341916e-16 2.5 C-0.1447068147224418 2.5, -0.2916120511149638 2.487147457203058, -0.43412044416732576 2.46201938253052 C-0.5766288372196877 2.436891307857982, -0.7190704323420595 2.3987241974763416, -0.8550503583141718 2.3492315519647713 C-0.991030284286284 2.299738906453201, -1.124680222349637 2.2374169168223177, -1.2499999999999996 2.165063509461097 C-1.375319777650362 2.092710102099876, -1.4961171729167733 2.008126855338237, -1.6069690242163475 1.9151111077974459 C-1.7178208755159217 1.8220953602566548, -1.822095360256653 1.7178208755159234, -1.9151111077974443 1.6069690242163495 C-2.0081268553382357 1.4961171729167755, -2.0927101020998746 1.3753197776503645, -2.1650635094610955 1.250000000000002 C-2.2374169168223164 1.1246802223496395, -2.2997389064531992 0.9910302842862865, -2.34923155196477 0.8550503583141743 C-2.3987241974763407 0.7190704323420621, -2.436891307857981 0.5766288372196907, -2.4620193825305194 0.434120444167329 C-2.487147457203058 0.29161205111496724, -2.5 0.14470681472244545, -2.5 3.636830773662308e-15 C-2.5 -0.14470681472243818, -2.4871474572030587 -0.2916120511149599, -2.4620193825305208 -0.4341204441673218 C-2.436891307857983 -0.5766288372196837, -2.398724197476343 -0.7190704323420553, -2.3492315519647726 -0.8550503583141675 C-2.2997389064532023 -0.9910302842862798, -2.23741691682232 -1.1246802223496328, -2.165063509461099 -1.2499999999999956 C-2.092710102099878 -1.3753197776503583, -2.00812685533824 -1.4961171729167695, -1.9151111077974488 -1.606969024216344 C-1.8220953602566576 -1.7178208755159183, -1.7178208755159263 -1.82209536025665, -1.6069690242163523 -1.9151111077974416 C-1.4961171729167784 -2.0081268553382334, -1.3753197776503672 -2.0927101020998724, -1.2500000000000047 -2.1650635094610937 C-1.1246802223496422 -2.237416916822315, -0.9910302842862897 -2.299738906453198, -0.8550503583141776 -2.3492315519647686 C-0.7190704323420656 -2.3987241974763394, -0.5766288372196942 -2.4368913078579806, -0.43412044416733236 -2.462019382530519 C-0.29161205111497057 -2.4871474572030574, -0.1447068147224489 -2.4999999999999996, -7.120580697431198e-15 -2.5 C0.14470681472243463 -2.5000000000000004, 0.29161205111495647 -2.487147457203059, 0.4341204441673183 -2.4620193825305217 C0.5766288372196802 -2.436891307857984, 0.7190704323420518 -2.3987241974763442, 0.8550503583141642 -2.349231551964774 C0.9910302842862766 -2.2997389064532037, 1.1246802223496295 -2.2374169168223212, 1.2499999999999925 -2.165063509461101 C1.3753197776503554 -2.0927101020998804, 1.4961171729167668 -2.008126855338242, 1.6069690242163412 -1.915111107797451 C1.7178208755159157 -1.82209536025666, 1.8220953602566472 -1.7178208755159294, 1.915111107797439 -1.6069690242163557 C2.0081268553382308 -1.496117172916782, 2.09271010209987 -1.3753197776503712, 2.1650635094610915 -1.2500000000000089 C2.237416916822313 -1.1246802223496466, 2.299738906453196 -0.9910302842862939, 2.3492315519647673 -0.855050358314182 C2.3987241974763385 -0.71907043234207, 2.4368913078579792 -0.5766288372196986, 2.462019382530518 -0.4341204441673369 C2.487147457203057 -0.29161205111497523, 2.4936698970884197 -0.07235340736123454, 2.5 -1.1714553645825241e-14 C2.5063301029115803 0.07235340736121111, 2.50633010291158 -0.07235340736122292, 2.5 0" stroke="none" stroke-width="0" fill="#2C5F8A" style=""/><path d="M2.5 0 C2.5 0.14470681472244193, 2.487147457203058 0.29161205111496386, 2.46201938253052 0.4341204441673258 C2.436891307857982 0.5766288372196877, 2.3987241974763416 0.7190704323420595, 2.3492315519647713 0.8550503583141718 C2.299738906453201 0.991030284286284, 2.2374169168223177 1.124680222349637, 2.165063509461097 1.2499999999999998 C2.092710102099876 1.3753197776503625, 2.0081268553382365 1.496117172916774, 1.915111107797445 1.6069690242163481 C1.8220953602566536 1.7178208755159223, 1.7178208755159226 1.8220953602566536, 1.6069690242163484 1.915111107797445 C1.4961171729167742 2.0081268553382365, 1.375319777650363 2.0927101020998755, 1.2500000000000002 2.1650635094610964 C1.1246802223496375 2.2374169168223172, 0.9910302842862845 2.2997389064532, 0.8550503583141721 2.349231551964771 C0.7190704323420597 2.3987241974763416, 0.576628837219688 2.436891307857982, 0.43412044416732604 2.46201938253052 C0.291612051114964 2.487147457203058, 0.14470681472244212 2.5, 1.5308084989341916e-16 2.5 C-0.1447068147224418 2.5, -0.2916120511149638 2.487147457203058, -0.43412044416732576 2.46201938253052 C-0.5766288372196877 2.436891307857982, -0.7190704323420595 2.3987241974763416, -0.8550503583141718 2.3492315519647713 C-0.991030284286284 2.299738906453201, -1.124680222349637 2.2374169168223177, -1.2499999999999996 2.165063509461097 C-1.375319777650362 2.092710102099876, -1.4961171729167733 2.008126855338237, -1.6069690242163475 1.9151111077974459 C-1.7178208755159217 1.8220953602566548, -1.822095360256653 1.7178208755159234, -1.9151111077974443 1.6069690242163495 C-2.0081268553382357 1.4961171729167755, -2.0927101020998746 1.3753197776503645, -2.1650635094610955 1.250000000000002 C-2.2374169168223164 1.1246802223496395, -2.2997389064531992 0.9910302842862865, -2.34923155196477 0.8550503583141743 C-2.3987241974763407 0.7190704323420621, -2.436891307857981 0.5766288372196907, -2.4620193825305194 0.434120444167329 C-2.487147457203058 0.29161205111496724, -2.5 0.14470681472244545, -2.5 3.636830773662308e-15 C-2.5 -0.14470681472243818, -2.4871474572030587 -0.2916120511149599, -2.4620193825305208 -0.4341204441673218 C-2.436891307857983 -0.5766288372196837, -2.398724197476343 -0.7190704323420553, -2.3492315519647726 -0.8550503583141675 C-2.2997389064532023 -0.9910302842862798, -2.23741691682232 -1.1246802223496328, -2.165063509461099 -1.2499999999999956 C-2.092710102099878 -1.3753197776503583, -2.00812685533824 -1.4961171729167695, -1.9151111077974488 -1.606969024216344 C-1.8220953602566576 -1.7178208755159183, -1.7178208755159263 -1.82209536025665, -1.6069690242163523 -1.9151111077974416 C-1.4961171729167784 -2.0081268553382334, -1.3753197776503672 -2.0927101020998724, -1.2500000000000047 -2.1650635094610937 C-1.1246802223496422 -2.237416916822315, -0.9910302842862897 -2.299738906453198, -0.8550503583141776 -2.3492315519647686 C-0.7190704323420656 -2.3987241974763394, -0.5766288372196942 -2.4368913078579806, -0.43412044416733236 -2.462019382530519 C-0.29161205111497057 -2.4871474572030574, -0.1447068147224489 -2.4999999999999996, -7.120580697431198e-15 -2.5 C0.14470681472243463 -2.5000000000000004, 0.29161205111495647 -2.487147457203059, 0.4341204441673183 -2.4620193825305217 C0.5766288372196802 -2.436891307857984, 0.7190704323420518 -2.3987241974763442, 0.8550503583141642 -2.349231551964774 C0.9910302842862766 -2.2997389064532037, 1.1246802223496295 -2.2374169168223212, 1.2499999999999925 -2.165063509461101 C1.3753197776503554 -2.0927101020998804, 1.4961171729167668 -2.008126855338242, 1.6069690242163412 -1.915111107797451 C1.7178208755159157 -1.82209536025666, 1.8220953602566472 -1.7178208755159294, 1.915111107797439 -1.6069690242163557 C2.0081268553382308 -1.496117172916782, 2.09271010209987 -1.3753197776503712, 2.1650635094610915 -1.2500000000000089 C2.237416916822313 -1.1246802223496466, 2.299738906453196 -0.9910302842862939, 2.3492315519647673 -0.855050358314182 C2.3987241974763385 -0.71907043234207, 2.4368913078579792 -0.5766288372196986, 2.462019382530518 -0.4341204441673369 C2.487147457203057 -0.29161205111497523, 2.4936698970884197 -0.07235340736123454, 2.5 -1.1714553645825241e-14 C2.5063301029115803 0.07235340736121111, 2.50633010291158 -0.07235340736122292, 2.5 0" stroke="#2C5F8A" stroke-width="2" fill="none" stroke-dasharray="0 0" style=""/></g></g></g><g class="node statediagram-note" id="my-svg-state-Created----note-32" data-look="classic" transform="translate(734.4341766834259, 274)"><g class="basic label-container outer-path"><path d="M-107.5 -39 L107.5 -39 L107.5 39 L-107.5 39" stroke="none" stroke-width="0" fill="#fff5ad" style=""/><path d="M-107.5 -39 C-47.14516760995426 -39, 13.209664780091487 -39, 107.5 -39 M-107.5 -39 C-32.34852048121449 -39, 42.802959037571014 -39, 107.5 -39 M107.5 -39 C107.5 -14.255597730699222, 107.5 10.488804538601556, 107.5 39 M107.5 -39 C107.5 -21.398278757379238, 107.5 -3.796557514758476, 107.5 39 M107.5 39 C42.38156718048296 39, -22.73686563903408 39, -107.5 39 M107.5 39 C33.92718966166794 39, -39.64562067666412 39, -107.5 39 M-107.5 39 C-107.5 20.269265566200634, -107.5 1.5385311324012676, -107.5 -39 M-107.5 39 C-107.5 15.043387548465702, -107.5 -8.913224903068595, -107.5 -39" stroke="hsl(52.6829268293, 60%, 73.9215686275%)" stroke-width="1.3" fill="none" stroke-dasharray="0 0" style=""/></g><g class="label noteLabel" style="" transform="translate(-92.5, -24)"><rect/><foreignObject width="185" height="48"><div xmlns="http://www.w3.org/1999/xhtml" style="display: table-cell; white-space: nowrap; line-height: 1.5; max-width: 200px; text-align: center;"><span class="nodeLabel markdown-node-label"><p>Initial state when payment<br />intent is created via API</p></span></div></foreignObject></g></g><g class="node statediagram-note" id="my-svg-state-Authorized----note-33" data-look="classic" transform="translate(146.5078125, 844)"><g class="basic label-container outer-path"><path d="M-103.5078125 -51 L103.5078125 -51 L103.5078125 51 L-103.5078125 51" stroke="none" stroke-width="0" fill="#fff5ad" style=""/><path d="M-103.5078125 -51 C-30.1113607872321 -51, 43.2850909255358 -51, 103.5078125 -51 M-103.5078125 -51 C-39.297813215983794 -51, 24.912186068032412 -51, 103.5078125 -51 M103.5078125 -51 C103.5078125 -27.081040247024458, 103.5078125 -3.162080494048915, 103.5078125 51 M103.5078125 -51 C103.5078125 -30.44842167165373, 103.5078125 -9.89684334330746, 103.5078125 51 M103.5078125 51 C43.355675317841296 51, -16.796461864317408 51, -103.5078125 51 M103.5078125 51 C47.22956232840157 51, -9.04868784319686 51, -103.5078125 51 M-103.5078125 51 C-103.5078125 28.730697909465608, -103.5078125 6.461395818931216, -103.5078125 -51 M-103.5078125 51 C-103.5078125 23.566710732013785, -103.5078125 -3.8665785359724296, -103.5078125 -51" stroke="hsl(52.6829268293, 60%, 73.9215686275%)" stroke-width="1.3" fill="none" stroke-dasharray="0 0" style=""/></g><g class="label noteLabel" style="" transform="translate(-88.5078125, -36)"><rect/><foreignObject width="177.015625" height="72"><div xmlns="http://www.w3.org/1999/xhtml" style="display: table-cell; white-space: nowrap; line-height: 1.5; max-width: 200px; text-align: center;"><span class="nodeLabel markdown-node-label"><p>Funds reserved on card<br />Not yet transferred<br />Can be voided at no cost</p></span></div></foreignObject></g></g><g class="node statediagram-note" id="my-svg-state-Captured----note-34" data-look="classic" transform="translate(332.97265625, 1082)"><g class="basic label-container outer-path"><path d="M-102.59375 -39 L102.59375 -39 L102.59375 39 L-102.59375 39" stroke="none" stroke-width="0" fill="#fff5ad" style=""/><path d="M-102.59375 -39 C-24.580327305515638 -39, 53.433095388968724 -39, 102.59375 -39 M-102.59375 -39 C-22.06858661324145 -39, 58.4565767735171 -39, 102.59375 -39 M102.59375 -39 C102.59375 -9.4222527649323, 102.59375 20.1554944701354, 102.59375 39 M102.59375 -39 C102.59375 -19.142170153222757, 102.59375 0.7156596935544854, 102.59375 39 M102.59375 39 C31.348819801465325 39, -39.89611039706935 39, -102.59375 39 M102.59375 39 C33.592386840403094 39, -35.40897631919381 39, -102.59375 39 M-102.59375 39 C-102.59375 16.367135436161053, -102.59375 -6.2657291276778935, -102.59375 -39 M-102.59375 39 C-102.59375 16.795661188746422, -102.59375 -5.408677622507156, -102.59375 -39" stroke="hsl(52.6829268293, 60%, 73.9215686275%)" stroke-width="1.3" fill="none" stroke-dasharray="0 0" style=""/></g><g class="label noteLabel" style="" transform="translate(-87.59375, -24)"><rect/><foreignObject width="175.1875" height="48"><div xmlns="http://www.w3.org/1999/xhtml" style="display: table-cell; white-space: nowrap; line-height: 1.5; max-width: 200px; text-align: center;"><span class="nodeLabel markdown-node-label"><p>Funds will be transferred<br />in next settlement batch</p></span></div></foreignObject></g></g><g class="node statediagram-note" id="my-svg-state-Settled----note-35" data-look="classic" transform="translate(490.56640625, 1296)"><g class="basic label-container outer-path"><path d="M-93.71875 -51 L93.71875 -51 L93.71875 51 L-93.71875 51" stroke="none" stroke-width="0" fill="#fff5ad" style=""/><path d="M-93.71875 -51 C-32.18959816115091 -51, 29.339553677698177 -51, 93.71875 -51 M-93.71875 -51 C-45.49726293512441 -51, 2.7242241297511782 -51, 93.71875 -51 M93.71875 -51 C93.71875 -18.35323850947669, 93.71875 14.293522981046621, 93.71875 51 M93.71875 -51 C93.71875 -28.811673594608397, 93.71875 -6.623347189216794, 93.71875 51 M93.71875 51 C21.221393339973503 51, -51.275963320052995 51, -93.71875 51 M93.71875 51 C23.125432385901917 51, -47.46788522819617 51, -93.71875 51 M-93.71875 51 C-93.71875 17.619878492301744, -93.71875 -15.760243015396512, -93.71875 -51 M-93.71875 51 C-93.71875 22.16478603940453, -93.71875 -6.670427921190942, -93.71875 -51" stroke="hsl(52.6829268293, 60%, 73.9215686275%)" stroke-width="1.3" fill="none" stroke-dasharray="0 0" style=""/></g><g class="label noteLabel" style="" transform="translate(-78.71875, -36)"><rect/><foreignObject width="157.4375" height="72"><div xmlns="http://www.w3.org/1999/xhtml" style="display: table-cell; white-space: nowrap; line-height: 1.5; max-width: 200px; text-align: center;"><span class="nodeLabel markdown-node-label"><p>Funds transferred to<br />merchant account<br />Refund window opens</p></span></div></foreignObject></g></g><g class="node statediagram-note" id="my-svg-state-Disputed----note-36" data-look="classic" transform="translate(958.765625, 1696)"><g class="basic label-container outer-path"><path d="M-115 -63 L115 -63 L115 63 L-115 63" stroke="none" stroke-width="0" fill="#fff5ad" style=""/><path d="M-115 -63 C-68.75548241655241 -63, -22.510964833104836 -63, 115 -63 M-115 -63 C-30.684581566659944 -63, 53.63083686668011 -63, 115 -63 M115 -63 C115 -26.258931918845846, 115 10.482136162308308, 115 63 M115 -63 C115 -28.273051535550458, 115 6.453896928899084, 115 63 M115 63 C28.031030897365582 63, -58.937938205268836 63, -115 63 M115 63 C48.23792091337245 63, -18.524158173255103 63, -115 63 M-115 63 C-115 21.708023011536717, -115 -19.583953976926566, -115 -63 M-115 63 C-115 15.96993079938315, -115 -31.0601384012337, -115 -63" stroke="hsl(52.6829268293, 60%, 73.9215686275%)" stroke-width="1.3" fill="none" stroke-dasharray="0 0" style=""/></g><g class="label noteLabel" style="" transform="translate(-100, -48)"><rect/><foreignObject width="200" height="96"><div xmlns="http://www.w3.org/1999/xhtml" style="display: table; white-space: break-spaces; line-height: 1.5; max-width: 200px; text-align: center; width: 200px;"><span class="nodeLabel markdown-node-label"><p>Funds provisionally reversed<br />Merchant must respond<br />within 7-21 days</p></span></div></foreignObject></g></g><g class="node statediagram-note" id="my-svg-state-Voided----note-37" data-look="classic" transform="translate(2597.66796875, 2084)"><g class="basic label-container outer-path"><path d="M-115 -63 L115 -63 L115 63 L-115 63" stroke="none" stroke-width="0" fill="#fff5ad" style=""/><path d="M-115 -63 C-44.973600096491154 -63, 25.052799807017692 -63, 115 -63 M-115 -63 C-31.368190072611966 -63, 52.26361985477607 -63, 115 -63 M115 -63 C115 -36.921833450950956, 115 -10.843666901901912, 115 63 M115 -63 C115 -34.71845215132785, 115 -6.436904302655712, 115 63 M115 63 C42.1857525758485 63, -30.628494848303006 63, -115 63 M115 63 C30.8139462534635 63, -53.372107493073 63, -115 63 M-115 63 C-115 17.317368660996927, -115 -28.365262678006147, -115 -63 M-115 63 C-115 37.74082742265843, -115 12.48165484531686, -115 -63" stroke="hsl(52.6829268293, 60%, 73.9215686275%)" stroke-width="1.3" fill="none" stroke-dasharray="0 0" style=""/></g><g class="label noteLabel" style="" transform="translate(-100, -48)"><rect/><foreignObject width="200" height="96"><div xmlns="http://www.w3.org/1999/xhtml" style="display: table; white-space: break-spaces; line-height: 1.5; max-width: 200px; text-align: center; width: 200px;"><span class="nodeLabel markdown-node-label"><p>Auth cancelled before capture<br />No funds moved<br />No fees charged</p></span></div></foreignObject></g></g></g></g></g><defs><filter id="my-svg-drop-shadow" height="130%" width="130%"><feDropShadow dx="4" dy="4" stdDeviation="0" flood-opacity="0.06" flood-color="#000000"/></filter></defs><defs><filter id="my-svg-drop-shadow-small" height="150%" width="150%"><feDropShadow dx="2" dy="2" stdDeviation="0" flood-opacity="0.06" flood-color="#000000"/></filter></defs><linearGradient id="my-svg-gradient" gradientUnits="objectBoundingBox" x1="0%" y1="0%" x2="100%" y2="0%"><stop offset="0%" stop-color="#2C5F8A" stop-opacity="1"/><stop offset="100%" stop-color="hsl(37.4285714286, 51.3043478261%, 44.9019607843%)" stop-opacity="1"/></linearGradient></svg>